<svg width="695" height="695" viewBox="0 0 695 695" fill="none" xmlns="http://www.w3.org/2000/svg">
<path d="M298.989 544.463H50.457L82.705 465.372L99.802 456.059L126.49 394.065L148.174 381.416L168.746 344.164H189.04L234.215 420.336L257.289 432.29L298.989 544.463Z" fill="#EBEBEB"/>
<path d="M50.457 544.463H157.626V482.747L185.148 439.518L172.082 394.065L189.04 344.164H168.746L148.174 381.416L126.49 394.065L99.802 456.059L82.705 465.372L50.457 544.463Z" fill="#DBDBDB"/>
<path d="M189.039 544.463L199.464 511.937L216.283 495.396L223.789 475.936L228.932 480.106V498.871L216.283 513.744V544.602L189.039 544.463Z" fill="#DBDBDB"/>
<path d="M209.057 444.244L211.837 431.317L219.343 423.811L222.818 428.259L218.092 434.097L220.316 446.468L209.057 444.244Z" fill="#DBDBDB"/>
<path d="M281.059 544.463H644.544L575.878 401.293L542.935 387.115L507.907 318.727L484.833 293.846L464.539 248.532L440.631 252.424L399.904 347.361L377.108 364.319L340.273 462.036L303.855 497.481L281.059 544.463Z" fill="#EBEBEB"/>
<path d="M464.539 248.532L467.319 319.978L440.492 357.369L453.002 386.142L428.121 449.387L449.805 501.651L437.017 544.463H281.059L303.855 497.481L340.273 462.036L377.108 364.319L399.904 347.361L440.631 252.424L464.539 248.532Z" fill="#DBDBDB"/>
<path d="M457.729 430.9L476.494 398.374L474.965 384.613L482.054 374.744L490.394 402.822L465.096 430.9H457.729Z" fill="#DBDBDB"/>
<path d="M443.131 191.82L444.382 194.6L447.44 195.017L445.216 197.102L445.772 200.021L443.131 198.631L440.49 200.021L440.907 197.102L438.822 195.017L441.741 194.6L443.131 191.82Z" fill="#DBDBDB"/>
<path d="M193.627 326.372L194.878 329.013L197.936 329.569L195.712 331.654L196.268 334.573L193.627 333.183L190.986 334.573L191.403 331.654L189.318 329.569L192.237 329.013L193.627 326.372Z" fill="#DBDBDB"/>
<path d="M540.293 93.2688L541.544 95.9098L544.602 96.3268L542.378 98.4118L542.934 101.47L540.293 100.08L537.652 101.47L538.069 98.4118L535.984 96.3268L538.903 95.9098L540.293 93.2688Z" fill="#DBDBDB"/>
<path d="M242.137 97.2998L243.388 100.08L246.446 100.497L244.222 102.582L244.778 105.501L242.137 104.111L239.496 105.501L239.913 102.582L237.828 100.497L240.747 100.08L242.137 97.2998Z" fill="#DBDBDB"/>
<path d="M620.217 318.171L621.468 320.951L624.387 321.368L622.302 323.453L622.858 326.372L620.217 324.982L617.437 326.372L617.993 323.453L615.908 321.368L618.827 320.951L620.217 318.171Z" fill="#DBDBDB"/>
<path d="M327.623 187.233L329.013 189.874L331.932 190.291L329.847 192.376L330.264 195.434L327.623 194.044L324.982 195.434L325.538 192.376L323.314 190.291L326.372 189.874L327.623 187.233Z" fill="#DBDBDB"/>
<path d="M63.1059 131.772L64.4959 134.552L67.4149 134.969L65.3299 137.054L65.7469 139.973L63.1059 138.583L60.4649 139.973L61.0209 137.054L58.7969 134.969L61.8549 134.552L63.1059 131.772Z" fill="#DBDBDB"/>
<path d="M120.373 292.456L121.763 295.097L124.682 295.514L122.597 297.599L123.153 300.657L120.373 299.267L117.732 300.657L118.288 297.599L116.203 295.514L119.122 295.097L120.373 292.456Z" fill="#DBDBDB"/>
<path d="M63.1058 338.187L63.9398 339.855L65.7468 340.133L64.4958 341.523L64.7738 343.33L63.1058 342.357L61.5768 343.33L61.8548 341.523L60.4648 340.133L62.2718 339.855L63.1058 338.187Z" fill="#DBDBDB"/>
<path d="M249.784 169.441L250.618 171.109L252.425 171.387L251.174 172.638L251.452 174.584L249.784 173.611L248.116 174.584L248.533 172.638L247.143 171.387L248.95 171.109L249.784 169.441Z" fill="#DBDBDB"/>
<path d="M387.67 317.198L388.504 318.866L390.45 319.144L389.06 320.534L389.338 322.341L387.67 321.368L386.141 322.341L386.419 320.534L385.029 319.144L386.975 318.866L387.67 317.198Z" fill="#DBDBDB"/>
<path d="M77.5609 146.228L78.3949 147.896L80.2019 148.174L78.9509 149.425L79.2289 151.232L77.5609 150.398L75.8929 151.232L76.1709 149.425L74.9199 148.174L76.7269 147.896L77.5609 146.228Z" fill="#DBDBDB"/>
<path d="M544.602 293.985L545.436 295.653L547.243 295.931L545.853 297.182L546.131 298.989L544.602 298.155L542.934 298.989L543.212 297.182L541.961 295.931L543.768 295.653L544.602 293.985Z" fill="#DBDBDB"/>
<path d="M131.495 372.242L132.329 373.91L134.136 374.188L132.885 375.439L133.163 377.246L131.495 376.412L129.827 377.246L130.244 375.439L128.854 374.188L130.661 373.91L131.495 372.242Z" fill="#DBDBDB"/>
<path d="M99.6625 283.421L100.496 285.089L102.303 285.367L101.052 286.757L101.33 288.564L99.6625 287.73L97.9945 288.564L98.2725 286.757L97.0215 285.367L98.8285 285.089L99.6625 283.421Z" fill="#DBDBDB"/>
<path d="M369.045 156.653L369.879 158.321L371.686 158.46L370.296 159.85L370.713 161.657L369.045 160.823L367.377 161.657L367.655 159.85L366.404 158.46L368.211 158.321L369.045 156.653Z" fill="#DBDBDB"/>
<path d="M550.996 372.242L551.83 373.91L553.776 374.188L552.386 375.439L552.664 377.246L550.996 376.412L549.467 377.246L549.745 375.439L548.355 374.188L550.162 373.91L550.996 372.242Z" fill="#DBDBDB"/>
<path d="M633.422 213.504L634.256 215.172L636.202 215.45L634.812 216.701L635.09 218.647L633.422 217.674L631.893 218.647L632.171 216.701L630.781 215.45L632.727 215.172L633.422 213.504Z" fill="#DBDBDB"/>
<path d="M561.004 211.002L561.838 212.67L563.645 212.948L562.394 214.199L562.672 216.006L561.004 215.172L559.336 216.006L559.753 214.199L558.363 212.948L560.17 212.67L561.004 211.002Z" fill="#DBDBDB"/>
<path d="M507.767 138.166C501.512 149.147 489.558 156.653 475.936 156.653C455.642 156.653 439.379 140.251 439.379 119.957C439.379 102.582 451.611 87.9869 467.874 84.2339C456.059 89.6549 447.997 101.609 447.997 115.37C447.997 134.274 463.287 149.564 482.191 149.564C492.477 149.564 501.512 145.255 507.767 138.166Z" fill="#DBDBDB"/>
<path d="M50.1797 544.463C240.61 543.629 454.253 543.629 644.683 544.463C454.253 545.297 240.749 545.297 50.1797 544.463Z" fill="#C7C7C7"/>
<path d="M652.466 556.973H42.5343C39.0593 556.973 36.2793 554.193 36.2793 550.718C36.2793 547.243 39.0593 544.463 42.5343 544.463H652.327C655.802 544.463 658.582 547.243 658.582 550.718C658.721 554.193 655.802 556.973 652.466 556.973Z" fill="#F7F7F7"/>
<path d="M528.479 581.715H144.005C140.53 581.715 137.75 578.935 137.75 575.46C137.75 571.985 140.53 569.205 144.005 569.205H528.479C531.954 569.205 534.734 571.985 534.734 575.46C534.595 578.935 531.815 581.715 528.479 581.715Z" fill="#F7F7F7"/>
<path d="M493.867 606.318H213.782C210.307 606.318 207.527 603.538 207.527 600.063C207.527 596.588 210.307 593.808 213.782 593.808H493.867C497.342 593.808 500.122 596.588 500.122 600.063C500.122 603.538 497.342 606.318 493.867 606.318Z" fill="#F7F7F7"/>
<path d="M118.011 581.715H88.8214C85.3464 581.715 82.5664 578.935 82.5664 575.46C82.5664 571.985 85.3464 569.205 88.8214 569.205H118.011C121.486 569.205 124.266 571.985 124.266 575.46C124.266 578.935 121.486 581.715 118.011 581.715Z" fill="#F7F7F7"/>
<path d="M542.239 606.318H527.644C524.169 606.318 521.389 603.538 521.389 600.063C521.389 596.588 524.169 593.808 527.644 593.808H542.239C545.714 593.808 548.494 596.588 548.494 600.063C548.494 603.538 545.714 606.318 542.239 606.318Z" fill="#F7F7F7"/>
<path d="M324.566 569.344H163.465C165.133 569.344 166.801 568.649 167.913 567.537C169.025 566.425 169.72 564.896 169.72 563.089C169.72 559.614 166.94 556.834 163.465 556.834H324.566C322.898 556.834 321.23 557.529 320.118 558.641C319.006 559.753 318.311 561.282 318.311 563.089C318.311 566.564 321.091 569.344 324.566 569.344Z" fill="#F7F7F7"/>
<path d="M491.783 569.344H386.143C387.811 569.344 389.479 568.649 390.591 567.537C391.703 566.425 392.398 564.896 392.398 563.089C392.398 559.614 389.618 556.834 386.143 556.834H491.783C490.115 556.834 488.447 557.529 487.335 558.641C486.223 559.753 485.528 561.282 485.528 563.089C485.667 566.564 488.447 569.344 491.783 569.344Z" fill="#F7F7F7"/>
<path d="M411.857 594.086H249.783C251.451 594.086 253.119 593.391 254.231 592.279C255.343 591.167 256.038 589.638 256.038 587.831C256.038 584.356 253.258 581.576 249.783 581.576H411.857C410.189 581.576 408.521 582.271 407.409 583.383C406.297 584.495 405.602 586.024 405.602 587.831C405.741 591.306 408.521 594.086 411.857 594.086Z" fill="#F7F7F7"/>
<path d="M91.8789 544.324H479.689L408.938 369.879L374.883 352.643L338.743 269.243L314.974 238.941L293.846 183.758L269.243 188.484L227.265 304.132L203.774 324.843L153.039 443.966L115.37 487.056L91.8789 544.324Z" fill="#E3E3E3"/>
<path d="M293.846 183.758L296.765 270.772L269.104 316.503L282.031 351.392L256.316 428.398L278.834 492.199L265.49 544.324H91.8789L115.37 487.056L153.039 443.966L203.774 324.843L227.265 304.132L269.243 188.484L293.846 183.758Z" fill="#B7B7B7"/>
<path d="M287.035 406.019L306.356 366.404L304.827 349.585L311.916 337.492L320.673 371.825L294.541 406.019H287.035Z" fill="#B7B7B7"/>
<path d="M603.121 544.463H315.947L353.894 451.194L380.582 429.788L408.243 349.446L430.622 333.044L451.889 284.811H472.878L519.582 383.64L543.212 398.93L603.121 544.463Z" fill="#B7B7B7"/>
<path d="M315.947 544.463H440.491V464.399L468.847 408.243L455.364 349.446L472.878 284.811H451.889L430.622 333.044L408.243 349.446L380.582 429.788L353.894 451.194L315.947 544.463Z" fill="#C7C7C7"/>
<path d="M472.879 544.463L483.582 502.207L500.957 480.801L508.741 455.503L514.162 461.063V485.249L500.957 504.431V544.602L472.879 544.463Z" fill="#C7C7C7"/>
<path d="M493.451 414.637L496.37 397.679L504.154 387.949L507.768 393.787L502.903 401.293L505.127 417.417L493.451 414.637Z" fill="#C7C7C7"/>
<path d="M109.393 544.046C107.864 545.575 89.2384 546.409 82.4274 546.409C75.6164 546.409 57.1294 545.714 55.4614 544.046C53.9324 542.517 76.3114 418.946 82.4274 418.946C88.4044 419.085 110.922 542.517 109.393 544.046Z" fill="#C7C7C7"/>
<path d="M109.81 512.632C105.223 514.439 88.2648 521.25 84.5118 523.335C84.5118 522.501 84.5118 521.806 84.5118 520.972C88.5428 518.609 92.7128 516.107 96.8828 513.744C101.331 511.242 106.057 508.879 110.088 505.821C110.227 505.682 110.227 505.265 109.949 505.404C105.362 507.35 101.192 510.13 97.0218 512.632C92.8518 515.134 88.6818 517.636 84.6508 520.138C84.6508 514.161 84.6508 508.323 84.5118 502.346C91.1838 499.705 97.8558 496.091 103.833 492.477C104.111 492.338 103.972 491.921 103.694 492.06C97.1608 494.701 90.4888 497.898 84.5118 501.512C84.5118 498.454 84.5118 495.396 84.5118 492.338C84.3728 476.492 84.3728 460.646 83.9558 444.8C87.9868 442.715 92.1568 440.908 96.1878 438.962C96.4658 438.823 96.3268 438.406 96.0488 438.545C92.0178 440.074 87.9868 442.02 83.9558 443.827C83.6778 435.626 83.3998 427.425 82.9828 419.363C82.9828 419.085 82.5658 419.085 82.5658 419.363C82.0098 434.514 82.0098 449.665 82.2878 464.955C78.1178 461.619 73.6698 458.7 69.3608 455.503C69.2218 455.364 69.0828 455.642 69.2218 455.781C73.6698 459.117 77.8398 462.87 82.2878 466.345C82.2878 467.179 82.2878 468.013 82.2878 468.986C77.7008 466.901 73.1138 464.955 68.5268 463.009C68.1098 462.87 67.8318 463.426 68.2488 463.565C72.9748 465.789 77.5618 468.013 82.2878 470.237C82.4268 477.743 82.5658 485.249 82.5658 492.755C82.7048 505.821 82.9828 519.026 83.2608 532.092C74.7818 527.783 66.1638 523.613 57.4068 519.443C57.1288 519.304 56.8508 519.721 57.1288 519.999C65.6078 524.864 74.3648 529.173 83.2608 533.065C83.5388 544.046 83.6778 534.038 83.8168 545.019C83.8168 545.714 84.7898 545.714 84.7898 545.019C84.6508 531.119 84.6508 538.069 84.5118 524.169C88.9598 523.057 106.057 515.829 110.088 513.744C110.505 513.188 110.227 512.493 109.81 512.632Z" fill="#B7B7B7"/>
<path d="M248.393 543.907C247.003 545.297 231.018 545.853 225.319 545.853C219.481 545.853 203.635 545.297 202.245 543.907C200.855 542.517 220.176 436.599 225.319 436.599C230.462 436.599 249.783 542.656 248.393 543.907Z" fill="#C7C7C7"/>
<path d="M248.671 516.941C244.779 518.47 230.184 524.447 226.987 526.115C226.987 525.42 226.987 524.725 226.987 524.169C230.462 522.084 234.076 519.999 237.551 518.053C241.304 515.829 245.474 513.883 248.949 511.242C249.088 511.103 249.088 510.825 248.81 510.825C244.918 512.493 241.304 514.856 237.69 516.941C234.076 519.026 230.601 521.25 226.987 523.335C226.987 518.192 226.987 513.188 226.987 508.045C232.686 505.821 238.385 502.763 243.667 499.566C243.806 499.427 243.667 499.149 243.528 499.149C237.968 501.373 232.269 504.153 226.987 507.211C226.987 504.57 226.987 501.929 226.987 499.288C226.848 485.666 226.848 472.044 226.431 458.422C229.906 456.615 233.52 455.086 236.856 453.418C237.134 453.279 236.856 452.862 236.717 453.001C233.242 454.391 229.767 456.059 226.431 457.449C226.292 450.499 226.014 443.41 225.597 436.46C225.597 436.182 225.18 436.182 225.18 436.46C224.763 449.526 224.763 462.453 224.902 475.519C221.288 472.6 217.535 470.098 213.921 467.318C213.782 467.179 213.643 467.457 213.782 467.596C217.535 470.515 221.149 473.712 225.041 476.631C225.041 477.326 225.041 478.16 225.041 478.855C221.149 477.048 217.257 475.38 213.226 473.712C212.948 473.573 212.67 473.99 212.948 474.129C216.979 476.075 220.871 478.021 225.041 479.828C225.18 486.222 225.18 492.755 225.319 499.149C225.458 510.408 225.736 521.667 226.014 532.926C218.647 529.173 211.28 525.559 203.913 522.084C203.635 521.945 203.357 522.362 203.635 522.501C210.863 526.671 218.369 530.424 226.014 533.76C226.153 543.073 226.431 535.984 226.57 545.436C226.57 545.992 227.404 545.992 227.404 545.436C227.265 533.482 227.265 537.93 227.265 525.976C231.157 525.003 245.752 518.748 249.227 517.08C249.366 517.497 249.088 516.802 248.671 516.941Z" fill="#B7B7B7"/>
<path d="M97.8575 544.463C98.9695 545.575 112.452 546.131 117.317 546.131C122.182 546.131 135.665 545.575 136.777 544.463C137.889 543.351 121.626 454.113 117.317 454.113C112.869 454.113 96.6065 543.351 97.8575 544.463Z" fill="#C7C7C7"/>
<path d="M97.5789 521.806C100.915 523.057 113.147 528.061 115.788 529.59C115.788 529.034 115.788 528.478 115.788 527.922C112.869 526.115 109.811 524.447 106.892 522.779C103.695 520.972 100.22 519.304 97.3009 517.08C97.1619 516.941 97.3009 516.663 97.4399 516.802C100.776 518.192 103.695 520.138 106.753 521.945C109.811 523.752 112.73 525.559 115.788 527.366C115.788 523.057 115.788 518.748 115.788 514.578C111.062 512.632 106.197 510.13 101.749 507.489C101.61 507.35 101.749 507.072 101.888 507.211C106.614 509.157 111.479 511.381 115.788 514.022C115.788 511.798 115.788 509.574 115.788 507.35C115.927 495.952 115.927 484.415 116.205 473.017C113.286 471.488 110.228 470.237 107.448 468.708C107.309 468.569 107.448 468.291 107.587 468.291C110.506 469.403 113.425 470.793 116.344 472.044C116.483 466.206 116.761 460.229 117.039 454.391C117.039 454.252 117.317 454.252 117.317 454.391C117.734 465.372 117.734 476.353 117.595 487.334C120.653 484.971 123.85 482.747 126.908 480.523C127.047 480.384 127.186 480.662 127.047 480.662C123.85 483.164 120.792 485.805 117.595 488.307C117.595 488.863 117.595 489.558 117.595 490.114C120.931 488.585 124.128 487.195 127.464 485.805C127.742 485.666 128.02 486.083 127.742 486.222C124.406 487.89 121.07 489.419 117.595 490.948C117.456 496.369 117.456 501.79 117.317 507.211C117.178 516.663 117.039 526.254 116.761 535.706C122.877 532.648 129.132 529.59 135.387 526.532C135.665 526.393 135.804 526.81 135.665 526.949C129.549 530.424 123.294 533.621 116.761 536.401C116.622 544.324 116.483 538.208 116.344 545.992C116.344 546.409 115.649 546.409 115.649 545.992C115.788 535.984 115.788 539.876 115.788 529.868C112.591 529.034 100.22 523.752 97.3009 522.362C97.0229 522.223 97.1619 521.667 97.5789 521.806Z" fill="#E3E3E3"/>
<path d="M590.473 543.768C588.944 545.297 571.847 545.853 565.592 545.853C559.337 545.853 542.24 545.158 540.711 543.768C539.182 542.239 560.032 428.398 565.592 428.398C571.152 428.398 591.863 542.378 590.473 543.768Z" fill="#C7C7C7"/>
<path d="M590.751 514.717C586.581 516.385 570.874 522.779 567.399 524.586C567.399 523.891 567.399 523.196 567.399 522.501C571.152 520.277 575.044 518.053 578.797 515.829C582.828 513.466 587.276 511.381 591.029 508.601C591.168 508.462 591.168 508.045 590.89 508.184C586.72 509.991 582.828 512.493 578.936 514.856C575.044 517.08 571.291 519.443 567.399 521.806C567.399 516.385 567.399 510.825 567.399 505.404C573.515 502.902 579.631 499.705 585.33 496.369C585.469 496.23 585.33 495.952 585.191 495.952C579.214 498.454 572.959 501.373 567.399 504.709C567.399 501.929 567.399 499.01 567.399 496.23C567.26 481.635 567.26 467.04 566.843 452.306C570.596 450.36 574.349 448.831 578.102 446.885C578.38 446.746 578.241 446.329 577.963 446.468C574.21 447.997 570.596 449.665 566.843 451.333C566.704 443.827 566.287 436.182 565.87 428.676C565.87 428.398 565.453 428.398 565.453 428.676C564.897 442.715 565.036 456.754 565.175 470.654C561.283 467.596 557.252 464.816 553.36 461.897C553.221 461.758 553.082 462.036 553.221 462.175C557.252 465.233 561.144 468.708 565.314 471.905C565.314 472.739 565.314 473.434 565.314 474.268C561.144 472.322 556.835 470.515 552.665 468.708C552.387 468.569 551.97 468.986 552.387 469.264C556.696 471.349 561.005 473.434 565.314 475.38C565.453 482.33 565.592 489.28 565.592 496.23C565.731 508.323 566.009 520.416 566.287 532.648C558.364 528.617 550.441 524.725 542.518 520.972C542.24 520.833 541.962 521.25 542.24 521.389C550.024 525.837 558.086 529.868 566.426 533.482C566.704 543.49 566.843 535.984 566.982 545.992C566.982 546.548 567.955 546.548 567.955 545.992C567.816 533.204 567.816 537.93 567.816 525.142C571.986 524.169 587.693 517.358 591.446 515.551C591.446 515.273 591.168 514.578 590.751 514.717Z" fill="#E3E3E3"/>
<path d="M519.582 543.768C518.053 545.297 500.956 545.853 494.701 545.853C488.446 545.853 471.349 545.158 469.82 543.768C468.291 542.239 489.141 428.398 494.701 428.398C500.261 428.398 520.972 542.378 519.582 543.768Z" fill="#C7C7C7"/>
<path d="M519.86 514.717C515.69 516.385 499.983 522.779 496.508 524.586C496.508 523.891 496.508 523.196 496.508 522.501C500.261 520.277 504.153 518.053 507.906 515.829C511.937 513.466 516.385 511.381 520.138 508.601C520.277 508.462 520.277 508.045 519.999 508.184C515.829 509.991 511.937 512.493 508.045 514.856C504.153 517.08 500.4 519.443 496.508 521.806C496.508 516.385 496.508 510.825 496.508 505.404C502.624 502.902 508.74 499.705 514.439 496.369C514.578 496.23 514.439 495.952 514.3 495.952C508.323 498.454 502.068 501.373 496.647 504.709C496.647 501.929 496.647 499.01 496.647 496.23C496.508 481.635 496.508 467.04 496.091 452.306C499.844 450.36 503.597 448.831 507.35 446.885C507.628 446.746 507.489 446.329 507.211 446.468C503.458 447.997 499.844 449.665 496.091 451.333C495.952 443.827 495.535 436.182 495.118 428.676C495.118 428.398 494.701 428.398 494.701 428.676C494.145 442.715 494.284 456.754 494.423 470.654C490.531 467.596 486.5 464.816 482.608 461.897C482.469 461.758 482.33 462.036 482.469 462.175C486.5 465.233 490.392 468.708 494.562 471.905C494.562 472.739 494.562 473.434 494.562 474.268C490.392 472.322 486.083 470.515 481.913 468.708C481.635 468.569 481.218 468.986 481.635 469.264C485.944 471.349 490.253 473.434 494.562 475.38C494.701 482.33 494.84 489.28 494.84 496.23C494.979 508.323 495.257 520.416 495.535 532.648C487.612 528.617 479.689 524.725 471.766 520.972C471.488 520.833 471.21 521.25 471.488 521.389C479.272 525.837 487.334 529.868 495.674 533.482C495.952 543.49 496.091 535.984 496.23 545.992C496.23 546.548 497.203 546.548 497.203 545.992C497.064 533.204 497.064 537.93 497.064 525.142C501.234 524.169 516.941 517.358 520.694 515.551C520.555 515.273 520.277 514.578 519.86 514.717Z" fill="#E3E3E3"/>
<path d="M510.408 544.88C511.381 545.853 523.474 546.409 527.783 546.409C532.092 546.409 544.185 545.992 545.158 544.88C546.131 543.907 531.675 464.26 527.783 464.26C523.891 464.26 509.435 543.907 510.408 544.88Z" fill="#C7C7C7"/>
<path d="M510.131 524.586C513.05 525.698 524.031 530.146 526.394 531.536C526.394 530.98 526.394 530.563 526.394 530.007C523.753 528.478 521.112 526.949 518.471 525.42C515.691 523.752 512.632 522.223 509.852 520.277C509.713 520.138 509.853 519.86 509.992 519.999C512.911 521.25 515.691 523.057 518.332 524.586C520.973 526.115 523.753 527.783 526.394 529.451C526.394 525.698 526.394 521.806 526.394 518.053C522.085 516.385 517.776 514.022 513.884 511.659C513.745 511.52 513.883 511.381 514.022 511.381C518.192 513.049 522.502 515.134 526.394 517.497C526.394 515.551 526.394 513.466 526.394 511.52C526.533 501.234 526.533 491.087 526.811 480.801C524.17 479.55 521.528 478.299 518.887 477.048C518.748 476.909 518.888 476.631 519.027 476.77C521.668 477.743 524.17 478.994 526.811 480.106C526.95 474.824 527.089 469.542 527.506 464.26C527.506 464.121 527.784 464.121 527.784 464.26C528.201 473.99 528.062 483.859 528.062 493.589C530.703 491.504 533.622 489.558 536.402 487.473C536.541 487.334 536.68 487.612 536.541 487.612C533.622 489.836 530.981 492.199 528.062 494.423C528.062 494.979 528.062 495.535 528.062 496.091C530.981 494.701 533.899 493.45 536.957 492.199C537.235 492.06 537.375 492.477 537.097 492.477C534.039 493.867 531.12 495.396 528.062 496.786C528.062 501.651 527.923 506.516 527.784 511.381C527.645 519.86 527.506 528.339 527.367 536.818C532.927 534.038 538.487 531.258 544.047 528.617C544.325 528.478 544.464 528.756 544.186 528.895C538.765 531.953 533.066 534.872 527.367 537.374C527.228 544.463 527.089 538.764 526.95 545.853C526.95 546.27 526.255 546.27 526.255 545.853C526.394 536.818 526.394 540.571 526.394 531.536C523.475 530.841 512.493 526.115 509.852 524.864C509.713 525.003 509.853 524.447 510.131 524.586Z" fill="#B7B7B7"/>
<path d="M177.227 544.741C178.2 545.714 190.293 546.27 194.602 546.27C198.911 546.27 211.004 545.853 211.977 544.741C212.95 543.768 198.494 464.121 194.602 464.121C190.71 464.121 176.254 543.768 177.227 544.741Z" fill="#C7C7C7"/>
<path d="M177.087 524.447C180.006 525.559 190.987 530.007 193.35 531.397C193.35 530.841 193.35 530.424 193.35 529.868C190.709 528.339 188.068 526.81 185.427 525.281C182.647 523.613 179.589 522.084 176.809 520.138C176.67 519.999 176.809 519.721 176.948 519.86C179.867 521.111 182.647 522.918 185.288 524.447C187.929 525.976 190.709 527.644 193.35 529.312C193.35 525.559 193.35 521.667 193.35 517.914C189.041 516.246 184.732 513.883 180.84 511.52C180.701 511.381 180.84 511.242 180.979 511.242C185.149 512.91 189.458 514.995 193.35 517.358C193.35 515.412 193.35 513.327 193.35 511.381C193.489 501.095 193.489 490.948 193.767 480.662C191.126 479.411 188.485 478.16 185.844 476.909C185.705 476.77 185.844 476.492 185.983 476.631C188.624 477.604 191.126 478.855 193.767 479.967C193.906 474.685 194.045 469.403 194.462 464.121C194.462 463.982 194.74 463.982 194.74 464.121C195.157 473.851 195.018 483.72 195.018 493.45C197.659 491.365 200.578 489.419 203.358 487.334C203.497 487.195 203.636 487.473 203.497 487.473C200.578 489.697 197.937 492.06 195.018 494.284C195.018 494.84 195.018 495.396 195.018 495.952C197.937 494.562 200.856 493.311 203.914 492.06C204.192 491.921 204.331 492.338 204.053 492.338C200.995 493.728 198.076 495.257 195.018 496.647C195.018 501.512 194.879 506.377 194.74 511.242C194.601 519.721 194.462 528.2 194.323 536.679C199.883 533.899 205.443 531.119 211.003 528.478C211.281 528.339 211.42 528.617 211.142 528.756C205.721 531.814 200.022 534.733 194.323 537.235C194.184 544.324 194.045 538.764 193.906 545.853C193.906 546.27 193.211 546.27 193.211 545.853C193.35 536.818 193.35 540.432 193.35 531.397C190.431 530.702 179.45 525.976 176.809 524.725C176.531 524.864 176.67 524.308 177.087 524.447Z" fill="#B7B7B7"/>
<path d="M280.363 544.602C281.336 545.575 293.429 546.131 297.738 546.131C302.047 546.131 314.14 545.714 315.113 544.602C316.086 543.629 301.63 463.982 297.738 463.982C293.846 463.982 279.39 543.49 280.363 544.602Z" fill="#C7C7C7"/>
<path d="M280.086 524.308C283.005 525.42 293.986 529.868 296.349 531.258C296.349 530.702 296.349 530.285 296.349 529.729C293.708 528.2 291.067 526.671 288.426 525.142C285.646 523.474 282.588 521.945 279.808 519.999C279.669 519.86 279.808 519.582 279.947 519.721C282.866 520.972 285.646 522.779 288.287 524.308C290.928 525.837 293.708 527.505 296.349 529.173C296.349 525.42 296.349 521.528 296.349 517.775C292.04 516.107 287.731 513.744 283.839 511.381C283.7 511.242 283.839 511.103 283.978 511.103C288.148 512.771 292.457 514.856 296.349 517.219C296.349 515.273 296.349 513.188 296.349 511.242C296.488 500.956 296.488 490.809 296.766 480.523C294.125 479.272 291.484 478.021 288.843 476.77C288.704 476.631 288.843 476.353 288.982 476.492C291.623 477.465 294.125 478.716 296.766 479.828C296.905 474.546 297.044 469.264 297.461 463.982C297.461 463.843 297.739 463.843 297.739 463.982C298.156 473.712 298.017 483.581 298.017 493.311C300.658 491.226 303.577 489.28 306.357 487.195C306.496 487.056 306.635 487.334 306.496 487.334C303.577 489.558 300.936 491.921 298.017 494.145C298.017 494.701 298.017 495.257 298.017 495.813C300.936 494.423 303.855 493.172 306.913 491.921C307.191 491.782 307.33 492.199 307.052 492.199C303.994 493.589 301.075 495.118 298.017 496.508C298.017 501.373 297.878 506.238 297.739 511.103C297.6 519.582 297.461 528.061 297.322 536.54C302.882 533.76 308.442 530.98 314.002 528.339C314.28 528.2 314.419 528.478 314.141 528.617C308.72 531.675 303.021 534.594 297.322 537.096C297.183 544.185 297.044 538.764 296.905 545.853C296.905 546.27 296.21 546.27 296.21 545.853C296.349 536.818 296.349 540.293 296.349 531.258C293.43 530.563 282.449 525.837 279.808 524.586C279.669 524.586 279.808 524.169 280.086 524.308Z" fill="#B7B7B7"/>
<path d="M604.789 544.602C605.762 545.575 617.855 546.131 622.164 546.131C626.473 546.131 638.566 545.714 639.539 544.602C640.512 543.629 626.056 463.982 622.164 463.982C618.272 463.982 603.677 543.49 604.789 544.602Z" fill="#C7C7C7"/>
<path d="M604.511 524.308C607.43 525.42 618.411 529.868 620.774 531.258C620.774 530.702 620.774 530.285 620.774 529.729C618.133 528.2 615.492 526.671 612.851 525.142C610.071 523.474 607.013 521.945 604.233 519.999C604.094 519.86 604.233 519.582 604.372 519.721C607.291 520.972 610.071 522.779 612.712 524.308C615.353 525.837 618.133 527.505 620.774 529.173C620.774 525.42 620.774 521.528 620.774 517.775C616.465 516.107 612.156 513.744 608.264 511.381C608.125 511.242 608.264 511.103 608.403 511.103C612.573 512.771 616.882 514.856 620.774 517.219C620.774 515.273 620.774 513.188 620.774 511.242C620.913 500.956 620.913 490.809 621.191 480.523C618.55 479.272 615.909 478.021 613.268 476.77C613.129 476.631 613.268 476.353 613.407 476.492C616.048 477.465 618.55 478.716 621.191 479.828C621.33 474.546 621.469 469.264 621.886 463.982C621.886 463.843 622.164 463.843 622.164 463.982C622.581 473.712 622.442 483.581 622.442 493.311C625.083 491.226 628.002 489.28 630.782 487.195C630.921 487.056 631.06 487.334 630.921 487.334C628.002 489.558 625.361 491.921 622.442 494.145C622.442 494.701 622.442 495.257 622.442 495.813C625.361 494.423 628.28 493.172 631.338 491.921C631.616 491.782 631.755 492.199 631.477 492.199C628.419 493.589 625.5 495.118 622.442 496.508C622.442 501.373 622.303 506.238 622.164 511.103C622.025 519.582 621.886 528.061 621.747 536.54C627.307 533.76 632.867 530.98 638.427 528.339C638.705 528.2 638.844 528.478 638.566 528.617C633.145 531.675 627.446 534.594 621.747 537.096C621.608 544.185 621.469 538.764 621.33 545.853C621.33 546.27 620.635 546.27 620.635 545.853C620.774 536.818 620.774 540.293 620.774 531.258C617.855 530.563 606.874 525.837 604.233 524.586C604.094 524.586 604.233 524.169 604.511 524.308Z" fill="#B7B7B7"/>
<path d="M475.657 538.903H473.572V544.741H475.657V538.903Z" fill="#C7C7C7"/>
<path d="M376.134 538.903H374.049V544.741H376.134V538.903Z" fill="#C7C7C7"/>
<path d="M374.049 544.602L403.1 501.373L432.985 544.602H374.049Z" fill="#79FF91"/>
<path opacity="0.1" d="M374.049 544.602L403.1 501.373L432.985 544.602H374.049Z" fill="#534141"/>
<path d="M403.1 501.373H445.773L475.38 544.602H432.985L403.1 501.373Z" fill="#79FF91"/>
<path d="M421.309 509.296H440.769L446.746 517.914H427.286L421.309 509.296Z" fill="white"/>
<path opacity="0.3" d="M393.648 544.602H411.857L403.1 501.373L393.648 544.602Z" fill="#534141"/>
<path d="M433.958 538.903H431.873V544.741H433.958V538.903Z" fill="#C7C7C7"/>
<path d="M403.101 501.373C396.012 515.412 387.95 530.841 380.305 544.602C387.394 530.563 395.595 515.134 403.101 501.373Z" fill="white"/>
<path d="M403.1 501.373C410.606 514.995 418.668 530.424 425.618 544.324C418.251 530.702 410.05 515.412 403.1 501.373Z" fill="white"/>
<path d="M393.647 544.602C393.647 544.602 392.257 538.486 386.002 533.065L403.238 501.373L393.647 544.602Z" fill="#79FF91"/>
<path d="M411.857 544.602L403.1 501.373L421.031 534.733C421.031 534.733 413.108 535.845 411.857 544.602Z" fill="#79FF91"/>
<path d="M246.169 240.887C245.752 240.47 245.474 240.053 245.057 239.775C244.779 239.358 244.362 239.08 243.945 238.663C243.667 238.246 243.25 237.968 242.833 237.551C242.555 237.134 242.138 236.856 241.721 236.439C241.443 236.022 241.026 235.744 240.609 235.327C240.331 234.91 239.914 234.632 239.497 234.215C239.219 233.798 238.802 233.52 238.385 233.103C238.107 232.686 237.69 232.408 237.273 231.991C236.995 231.574 236.578 231.296 236.161 230.879C235.049 229.628 233.798 228.655 232.269 227.821V118.567C232.269 118.011 231.991 117.733 231.991 117.177C231.991 116.343 231.991 116.065 231.713 115.37C231.713 115.092 231.435 114.536 231.435 114.258C231.157 113.424 231.157 113.146 230.879 112.451C230.601 112.173 230.323 111.617 230.323 111.339C229.767 110.505 229.489 110.227 229.211 109.949C228.933 109.671 228.655 109.115 228.377 108.837L227.265 107.725C227.265 107.586 226.987 107.308 226.848 107.308C226.709 107.169 226.57 107.03 226.292 106.752C226.292 106.613 226.014 106.335 225.875 106.335C225.736 106.196 225.597 106.057 225.319 105.779C225.319 105.64 225.041 105.362 224.902 105.362C224.763 105.223 224.624 105.084 224.346 104.806C224.346 104.667 224.068 104.389 223.929 104.389C223.79 104.25 223.651 104.111 223.373 103.833C223.373 103.694 223.095 103.416 222.956 103.416C222.817 103.277 222.678 103.138 222.4 102.86C222.4 102.721 222.122 102.443 221.983 102.443C221.844 102.304 221.705 102.165 221.427 101.887C221.427 101.748 221.149 101.47 221.01 101.47C220.871 101.331 220.732 101.192 220.454 100.914C220.454 100.775 220.176 100.497 220.037 100.497C219.898 100.358 219.759 100.219 219.481 99.9409C219.481 99.8019 219.203 99.5239 219.064 99.5239C218.925 99.3849 218.786 99.2459 218.508 98.9679C218.508 98.8289 218.23 98.5509 218.091 98.5509L217.396 97.8559C217.396 97.5779 216.84 97.2999 216.562 97.2999C216.562 97.0219 216.284 97.0219 216.284 97.0219C215.728 96.7439 215.45 96.4659 214.755 96.1879C214.477 95.9099 213.921 95.6319 213.365 95.0759C213.087 95.0759 212.531 94.7979 212.253 94.7979C211.697 94.5199 210.724 94.5199 210.446 94.2419C209.89 94.2419 209.612 94.2419 208.917 93.9639H207.11C206.832 93.9639 206.832 93.9639 206.554 93.9639C206.276 93.9639 205.998 93.9639 205.998 93.9639H203.913C203.635 94.2419 203.079 94.2419 202.801 94.2419C201.967 94.5199 201.411 94.5199 200.994 94.7979C200.438 94.7979 200.16 95.0759 199.882 95.6319C199.048 95.6319 198.77 95.9099 198.075 96.1879C197.797 96.4659 197.241 96.7439 196.963 97.0219C196.685 97.2999 196.407 97.5779 195.573 97.8559C195.295 98.4119 195.017 98.6899 194.739 98.9679C194.461 99.2459 194.461 99.5239 194.183 99.5239L86.736 233.103C81.593 239.636 82.01 248.81 88.126 254.509C88.404 254.926 88.821 255.343 89.238 255.621C89.516 256.038 89.933 256.455 90.35 256.733C90.628 257.15 91.045 257.567 91.462 257.845C91.74 258.262 92.157 258.679 92.574 258.957C92.852 259.374 93.269 259.791 93.686 260.069C93.964 260.486 94.381 260.903 94.798 261.181C95.076 261.598 95.493 262.015 95.91 262.293C96.188 262.71 96.605 263.127 97.022 263.405C97.3 263.822 97.717 264.239 98.134 264.517C98.829 265.212 99.524 266.046 100.358 266.602C103.277 269.243 106.752 270.077 110.227 270.077H190.569V281.058C190.569 285.923 192.515 290.093 195.712 293.012C195.99 293.429 196.407 293.707 196.824 294.124C197.102 294.541 197.519 294.819 197.936 295.236C198.214 295.653 198.631 295.931 199.048 296.348C199.326 296.765 199.743 297.043 200.16 297.46C200.438 297.877 200.855 298.155 201.272 298.572C201.55 298.989 201.967 299.267 202.384 299.684C202.662 300.101 203.079 300.379 203.496 300.796C203.774 301.213 204.191 301.491 204.608 301.908C204.886 302.325 205.303 302.603 205.72 303.02C208.639 306.217 212.809 308.163 217.535 308.163C226.57 308.163 233.52 301.213 233.52 292.178V270.077H236.439C245.474 270.077 252.702 263.127 252.702 254.092C251.451 247.976 249.366 243.806 246.169 240.887ZM189.318 178.754V225.597H151.51L189.318 178.754Z" fill="#79FF91"/>
<path opacity="0.1" d="M246.169 240.887C245.752 240.47 245.474 240.053 245.057 239.775C244.779 239.358 244.362 239.08 243.945 238.663C243.667 238.246 243.25 237.968 242.833 237.551C242.555 237.134 242.138 236.856 241.721 236.439C241.443 236.022 241.026 235.744 240.609 235.327C240.331 234.91 239.914 234.632 239.497 234.215C239.219 233.798 238.802 233.52 238.385 233.103C238.107 232.686 237.69 232.408 237.273 231.991C236.995 231.574 236.578 231.296 236.161 230.879C235.049 229.628 233.798 228.655 232.269 227.821V118.567C232.269 118.011 231.991 117.733 231.991 117.177C231.991 116.343 231.991 116.065 231.713 115.37C231.713 115.092 231.435 114.536 231.435 114.258C231.157 113.424 231.157 113.146 230.879 112.451C230.601 112.173 230.323 111.617 230.323 111.339C229.767 110.505 229.489 110.227 229.211 109.949C228.933 109.671 228.655 109.115 228.377 108.837L227.265 107.725C227.265 107.586 226.987 107.308 226.848 107.308C226.709 107.169 226.57 107.03 226.292 106.752C226.292 106.613 226.014 106.335 225.875 106.335C225.736 106.196 225.597 106.057 225.319 105.779C225.319 105.64 225.041 105.362 224.902 105.362C224.763 105.223 224.624 105.084 224.346 104.806C224.346 104.667 224.068 104.389 223.929 104.389C223.79 104.25 223.651 104.111 223.373 103.833C223.373 103.694 223.095 103.416 222.956 103.416C222.817 103.277 222.678 103.138 222.4 102.86C222.4 102.721 222.122 102.443 221.983 102.443C221.844 102.304 221.705 102.165 221.427 101.887C221.427 101.748 221.149 101.47 221.01 101.47C220.871 101.331 220.732 101.192 220.454 100.914C220.454 100.775 220.176 100.497 220.037 100.497C219.898 100.358 219.759 100.219 219.481 99.9409C219.481 99.8019 219.203 99.5239 219.064 99.5239C218.925 99.3849 218.786 99.2459 218.508 98.9679C218.508 98.8289 218.23 98.5509 218.091 98.5509L217.396 97.8559C217.396 97.5779 216.84 97.2999 216.562 97.2999C216.562 97.0219 216.284 97.0219 216.284 97.0219C215.728 96.7439 215.45 96.4659 214.755 96.1879C214.477 95.9099 213.921 95.6319 213.365 95.0759C213.087 95.0759 212.531 94.7979 212.253 94.7979C211.697 94.5199 210.724 94.5199 210.446 94.2419C209.89 94.2419 209.612 94.2419 208.917 93.9639H207.11C206.832 93.9639 206.832 93.9639 206.554 93.9639C206.276 93.9639 205.998 93.9639 205.998 93.9639H203.913C203.635 94.2419 203.079 94.2419 202.801 94.2419C201.967 94.5199 201.411 94.5199 200.994 94.7979C200.438 94.7979 200.16 95.0759 199.882 95.6319C199.048 95.6319 198.77 95.9099 198.075 96.1879C197.797 96.4659 197.241 96.7439 196.963 97.0219C196.685 97.2999 196.407 97.5779 195.573 97.8559C195.295 98.4119 195.017 98.6899 194.739 98.9679C194.461 99.2459 194.461 99.5239 194.183 99.5239L86.736 233.103C81.593 239.636 82.01 248.81 88.126 254.509C88.404 254.926 88.821 255.343 89.238 255.621C89.516 256.038 89.933 256.455 90.35 256.733C90.628 257.15 91.045 257.567 91.462 257.845C91.74 258.262 92.157 258.679 92.574 258.957C92.852 259.374 93.269 259.791 93.686 260.069C93.964 260.486 94.381 260.903 94.798 261.181C95.076 261.598 95.493 262.015 95.91 262.293C96.188 262.71 96.605 263.127 97.022 263.405C97.3 263.822 97.717 264.239 98.134 264.517C98.829 265.212 99.524 266.046 100.358 266.602C103.277 269.243 106.752 270.077 110.227 270.077H190.569V281.058C190.569 285.923 192.515 290.093 195.712 293.012C195.99 293.429 196.407 293.707 196.824 294.124C197.102 294.541 197.519 294.819 197.936 295.236C198.214 295.653 198.631 295.931 199.048 296.348C199.326 296.765 199.743 297.043 200.16 297.46C200.438 297.877 200.855 298.155 201.272 298.572C201.55 298.989 201.967 299.267 202.384 299.684C202.662 300.101 203.079 300.379 203.496 300.796C203.774 301.213 204.191 301.491 204.608 301.908C204.886 302.325 205.303 302.603 205.72 303.02C208.639 306.217 212.809 308.163 217.535 308.163C226.57 308.163 233.52 301.213 233.52 292.178V270.077H236.439C245.474 270.077 252.702 263.127 252.702 254.092C251.451 247.976 249.366 243.806 246.169 240.887ZM189.318 178.754V225.597H151.51L189.318 178.754Z" fill="#534141"/>
<path d="M240.331 241.582C240.331 250.617 233.103 257.567 224.068 257.567H221.149V279.668C221.149 288.703 214.199 295.653 205.164 295.653C196.129 295.653 189.179 288.703 189.179 279.668V257.567H98.4124H98.1344H97.8564C94.3814 257.567 90.9064 256.733 87.9874 254.092C80.7594 248.532 79.9254 238.663 85.3464 231.713L192.793 98.134C193.071 98.134 193.071 97.856 193.349 97.578C193.627 97.3 193.905 97.022 194.183 96.466C195.017 96.188 195.295 95.91 195.573 95.632C195.851 95.354 196.407 95.076 196.685 94.798C197.241 94.52 197.519 94.242 198.492 94.242C198.77 93.686 199.048 93.408 199.604 93.408C199.882 93.13 200.438 93.13 201.411 92.852C201.689 92.852 202.245 92.852 202.523 92.574C203.079 92.574 203.913 92.574 204.608 92.574C204.608 92.574 204.886 92.574 205.164 92.574C205.442 92.574 205.442 92.574 205.72 92.574C206.276 92.574 207.11 92.574 207.527 92.574C208.083 92.852 208.361 92.852 208.917 92.852C209.195 93.13 210.029 93.13 210.724 93.408C211.002 93.408 211.558 93.686 211.836 93.686C212.392 94.242 212.948 94.52 213.226 94.798C213.782 95.076 214.06 95.354 214.616 95.632C214.616 95.632 214.894 95.632 214.894 95.91C215.172 95.91 215.728 96.188 215.728 96.466C216.284 97.022 216.562 97.3 216.84 97.578C217.118 97.856 217.396 98.412 217.674 98.69C217.952 98.968 218.23 99.246 218.786 100.08C218.786 100.358 219.064 100.914 219.342 101.192C219.62 101.748 219.62 102.026 219.898 102.999C219.898 103.277 220.176 103.833 220.176 104.111C220.454 104.667 220.454 104.945 220.454 105.918C220.454 106.474 220.732 106.752 220.732 107.308C220.732 107.586 220.732 107.864 220.732 108.142V225.458H223.651C233.103 225.597 240.331 232.825 240.331 241.582ZM189.318 153.873L131.494 225.597H189.318V153.873Z" fill="#79FF91"/>
<path d="M410.188 135.664C406.852 130.66 403.099 125.934 398.79 121.903C398.651 121.764 398.512 121.625 398.234 121.347L398.095 121.208C397.956 121.069 397.817 120.93 397.678 120.791C397.261 120.374 396.844 119.957 396.566 119.679L396.427 119.54C396.288 119.401 396.149 119.262 396.01 119.123L395.871 118.984C395.732 118.845 395.593 118.706 395.454 118.567C395.037 118.15 394.62 117.733 394.342 117.455L394.203 117.316C394.064 117.177 393.925 117.038 393.786 116.899L393.647 116.76C393.508 116.621 393.369 116.482 393.23 116.343C392.813 115.926 392.396 115.509 392.118 115.231L391.979 115.092C391.84 114.953 391.701 114.814 391.562 114.675L391.423 114.536C391.284 114.397 391.145 114.258 391.006 114.119C390.589 113.702 390.172 113.285 389.894 113.007L389.755 112.868C389.616 112.729 389.477 112.59 389.338 112.451L389.199 112.312C377.523 100.358 362.372 92.2959 345.275 92.2959C322.34 92.2959 303.436 105.918 291.343 124.544C278.555 143.17 271.883 167.217 271.605 193.905C271.883 220.315 278.555 244.64 291.343 263.266C294.679 268.131 298.432 272.857 302.602 276.888C302.741 277.027 303.019 277.305 303.158 277.444C303.158 277.444 303.158 277.444 303.297 277.583C303.575 278 303.992 278.278 304.27 278.556C304.409 278.695 304.687 278.973 304.826 279.112C304.965 279.251 305.243 279.529 305.382 279.668C305.382 279.668 305.382 279.668 305.521 279.807C305.799 280.224 306.216 280.502 306.494 280.78C306.633 280.919 306.911 281.197 307.05 281.336C307.189 281.475 307.467 281.753 307.606 281.892C307.606 281.892 307.606 281.892 307.745 282.031C308.023 282.448 308.44 282.726 308.718 283.004C308.857 283.143 309.135 283.421 309.274 283.56C309.413 283.699 309.691 283.977 309.83 284.116C309.83 284.116 309.83 284.116 309.969 284.255C310.247 284.672 310.664 284.95 310.942 285.228C311.081 285.367 311.359 285.645 311.498 285.784C311.637 285.923 311.915 286.201 312.054 286.34C312.054 286.34 312.054 286.34 312.193 286.479C312.471 286.896 312.888 287.174 313.166 287.452C324.703 298.85 339.437 306.634 356.395 306.634C378.774 306.634 397.956 292.734 410.049 274.386C422.559 255.76 429.509 231.435 429.509 205.025C429.648 178.337 422.559 154.29 410.188 135.664ZM372.38 245.335C363.901 257.845 354.449 263.266 345.414 263.266C340.41 263.266 335.267 261.598 330.124 257.984C329.707 257.428 329.29 256.872 328.873 256.316C320.811 244.084 314.973 225.597 314.973 204.886C314.973 184.036 320.811 165.688 328.873 153.178C337.63 140.946 347.499 135.247 356.395 135.525C361.121 135.386 366.125 136.915 370.99 140.251C371.407 140.807 371.963 141.502 372.38 142.197C380.442 154.707 386.28 172.916 386.28 193.905C386.28 214.616 380.442 233.103 372.38 245.335Z" fill="#79FF91"/>
<path opacity="0.1" d="M410.188 135.664C406.852 130.66 403.099 125.934 398.79 121.903C398.651 121.764 398.512 121.625 398.234 121.347L398.095 121.208C397.956 121.069 397.817 120.93 397.678 120.791C397.261 120.374 396.844 119.957 396.566 119.679L396.427 119.54C396.288 119.401 396.149 119.262 396.01 119.123L395.871 118.984C395.732 118.845 395.593 118.706 395.454 118.567C395.037 118.15 394.62 117.733 394.342 117.455L394.203 117.316C394.064 117.177 393.925 117.038 393.786 116.899L393.647 116.76C393.508 116.621 393.369 116.482 393.23 116.343C392.813 115.926 392.396 115.509 392.118 115.231L391.979 115.092C391.84 114.953 391.701 114.814 391.562 114.675L391.423 114.536C391.284 114.397 391.145 114.258 391.006 114.119C390.589 113.702 390.172 113.285 389.894 113.007L389.755 112.868C389.616 112.729 389.477 112.59 389.338 112.451L389.199 112.312C377.523 100.358 362.372 92.2959 345.275 92.2959C322.34 92.2959 303.436 105.918 291.343 124.544C278.555 143.17 271.883 167.217 271.605 193.905C271.883 220.315 278.555 244.64 291.343 263.266C294.679 268.131 298.432 272.857 302.602 276.888C302.741 277.027 303.019 277.305 303.158 277.444C303.158 277.444 303.158 277.444 303.297 277.583C303.575 278 303.992 278.278 304.27 278.556C304.409 278.695 304.687 278.973 304.826 279.112C304.965 279.251 305.243 279.529 305.382 279.668C305.382 279.668 305.382 279.668 305.521 279.807C305.799 280.224 306.216 280.502 306.494 280.78C306.633 280.919 306.911 281.197 307.05 281.336C307.189 281.475 307.467 281.753 307.606 281.892C307.606 281.892 307.606 281.892 307.745 282.031C308.023 282.448 308.44 282.726 308.718 283.004C308.857 283.143 309.135 283.421 309.274 283.56C309.413 283.699 309.691 283.977 309.83 284.116C309.83 284.116 309.83 284.116 309.969 284.255C310.247 284.672 310.664 284.95 310.942 285.228C311.081 285.367 311.359 285.645 311.498 285.784C311.637 285.923 311.915 286.201 312.054 286.34C312.054 286.34 312.054 286.34 312.193 286.479C312.471 286.896 312.888 287.174 313.166 287.452C324.703 298.85 339.437 306.634 356.395 306.634C378.774 306.634 397.956 292.734 410.049 274.386C422.559 255.76 429.509 231.435 429.509 205.025C429.648 178.337 422.559 154.29 410.188 135.664ZM372.38 245.335C363.901 257.845 354.449 263.266 345.414 263.266C340.41 263.266 335.267 261.598 330.124 257.984C329.707 257.428 329.29 256.872 328.873 256.316C320.811 244.084 314.973 225.597 314.973 204.886C314.973 184.036 320.811 165.688 328.873 153.178C337.63 140.946 347.499 135.247 356.395 135.525C361.121 135.386 366.125 136.915 370.99 140.251C371.407 140.807 371.963 141.502 372.38 142.197C380.442 154.707 386.28 172.916 386.28 193.905C386.28 214.616 380.442 233.103 372.38 245.335Z" fill="#534141"/>
<path d="M271.605 194.044C271.883 167.356 278.555 143.309 291.343 124.683C303.575 106.057 322.34 92.4348 345.275 92.4348C367.654 92.4348 386.836 106.057 398.929 124.683C411.439 143.309 418.389 167.356 418.389 194.044C418.389 220.454 411.439 244.779 398.929 263.405C386.697 281.753 367.515 295.653 345.275 295.653C322.34 295.653 303.436 281.753 291.343 263.405C278.694 244.779 272.022 220.454 271.605 194.044ZM386.28 194.044C386.28 173.194 380.442 154.846 372.38 142.336C363.901 130.104 354.449 124.405 345.414 124.683C336.379 124.405 326.51 130.243 317.892 142.336C309.83 154.846 303.992 173.055 303.992 194.044C303.992 214.616 309.83 233.242 317.892 245.474C326.649 257.984 336.518 263.405 345.414 263.405C354.449 263.405 364.04 257.845 372.38 245.474C380.442 233.242 386.28 214.616 386.28 194.044Z" fill="#79FF91"/>
<path d="M607.848 240.887C607.431 240.47 607.153 240.053 606.736 239.775C606.319 239.358 606.041 239.08 605.624 238.663C605.207 238.246 604.929 237.968 604.512 237.551C604.095 237.134 603.817 236.856 603.4 236.439C602.983 236.022 602.705 235.744 602.288 235.327C601.871 234.91 601.593 234.632 601.176 234.215C600.759 233.798 600.481 233.52 600.064 233.103C599.647 232.686 599.369 232.408 598.952 231.991C598.535 231.574 598.257 231.296 597.84 230.879C596.728 229.628 595.338 228.655 593.948 227.821V118.567C593.948 118.011 593.67 117.733 593.67 117.177C593.67 116.343 593.67 116.065 593.392 115.37C593.392 115.092 593.114 114.536 593.114 114.258C592.836 113.424 592.836 113.146 592.558 112.451C592.28 112.173 592.002 111.617 592.002 111.339C591.446 110.505 591.168 110.227 590.89 109.949C590.612 109.671 590.334 109.115 590.056 108.837L588.944 107.725C588.944 107.586 588.666 107.308 588.527 107.308C588.388 107.169 588.249 107.03 587.971 106.752C587.971 106.613 587.693 106.335 587.554 106.335C587.415 106.196 587.276 106.057 586.998 105.779C586.998 105.64 586.72 105.362 586.581 105.362C586.442 105.223 586.303 105.084 586.025 104.806C586.025 104.667 585.747 104.389 585.608 104.389C585.469 104.25 585.33 104.111 585.052 103.833C585.052 103.694 584.774 103.416 584.635 103.416C584.496 103.277 584.357 103.138 584.079 102.86C584.079 102.721 583.801 102.443 583.662 102.443C583.523 102.304 583.384 102.165 583.106 101.887C583.106 101.748 582.828 101.47 582.689 101.47C582.55 101.331 582.411 101.192 582.133 100.914C582.133 100.775 581.855 100.497 581.716 100.497C581.577 100.358 581.438 100.219 581.16 99.9409C581.16 99.8019 580.882 99.5239 580.743 99.5239C580.604 99.3849 580.465 99.2459 580.187 98.9679C580.187 98.8289 579.909 98.5509 579.77 98.5509L579.075 97.8559C579.075 97.5779 578.519 97.2999 578.241 97.2999C578.241 97.0219 577.963 97.0219 577.963 97.0219C577.407 96.7439 577.129 96.4659 576.573 96.1879C576.295 95.9099 575.739 95.6319 575.183 95.0759C574.905 95.0759 574.349 94.7979 574.071 94.7979C573.515 94.5199 572.681 94.5199 572.264 94.2419C571.708 94.2419 571.43 94.2419 570.735 93.9639H568.928C568.65 93.9639 568.65 93.9639 568.372 93.9639C568.094 93.9639 567.816 93.9639 567.816 93.9639H564.341C564.063 94.2419 563.507 94.2419 563.229 94.2419C562.395 94.5199 561.839 94.5199 561.422 94.7979C560.866 94.7979 560.588 95.0759 560.31 95.6319C559.476 95.6319 559.198 95.9099 558.503 96.1879C558.225 96.4659 557.669 96.7439 557.391 97.0219C557.113 97.2999 556.835 97.5779 555.862 97.8559C555.584 98.4119 555.306 98.6899 555.028 98.9679C554.75 99.2459 554.75 99.5239 554.472 99.5239L447.025 233.103C441.882 239.636 442.299 248.81 448.415 254.509C448.693 254.926 449.11 255.343 449.527 255.621C449.805 256.038 450.222 256.455 450.639 256.733C450.917 257.15 451.334 257.567 451.751 257.845C452.029 258.262 452.446 258.679 452.863 258.957C453.141 259.374 453.558 259.791 453.975 260.069C454.253 260.486 454.67 260.903 455.087 261.181C455.365 261.598 455.782 262.015 456.199 262.293C456.477 262.71 456.894 263.127 457.311 263.405C457.589 263.822 458.006 264.239 458.423 264.517C459.118 265.212 459.813 266.046 460.647 266.602C463.566 269.243 467.041 270.077 470.516 270.077H550.858V281.058C550.858 285.784 552.804 290.093 556.001 293.012C556.279 293.429 556.696 293.707 557.113 294.124C557.391 294.541 557.808 294.819 558.225 295.236C558.503 295.653 558.92 295.931 559.337 296.348C559.615 296.765 560.032 297.043 560.449 297.46C560.727 297.877 561.144 298.155 561.561 298.572C561.839 298.989 562.256 299.267 562.673 299.684C562.951 300.101 563.368 300.379 563.785 300.796C564.063 301.213 564.48 301.491 564.897 301.908C565.175 302.325 565.592 302.603 566.009 303.02C568.928 306.217 573.098 308.163 577.824 308.163C586.859 308.163 593.809 301.213 593.809 292.178V270.077H596.728C605.763 270.077 612.991 263.127 612.991 254.092C613.13 247.976 611.184 243.806 607.848 240.887ZM550.997 178.754V225.597H513.189L550.997 178.754Z" fill="#79FF91"/>
<path opacity="0.1" d="M607.848 240.887C607.431 240.47 607.153 240.053 606.736 239.775C606.319 239.358 606.041 239.08 605.624 238.663C605.207 238.246 604.929 237.968 604.512 237.551C604.095 237.134 603.817 236.856 603.4 236.439C602.983 236.022 602.705 235.744 602.288 235.327C601.871 234.91 601.593 234.632 601.176 234.215C600.759 233.798 600.481 233.52 600.064 233.103C599.647 232.686 599.369 232.408 598.952 231.991C598.535 231.574 598.257 231.296 597.84 230.879C596.728 229.628 595.338 228.655 593.948 227.821V118.567C593.948 118.011 593.67 117.733 593.67 117.177C593.67 116.343 593.67 116.065 593.392 115.37C593.392 115.092 593.114 114.536 593.114 114.258C592.836 113.424 592.836 113.146 592.558 112.451C592.28 112.173 592.002 111.617 592.002 111.339C591.446 110.505 591.168 110.227 590.89 109.949C590.612 109.671 590.334 109.115 590.056 108.837L588.944 107.725C588.944 107.586 588.666 107.308 588.527 107.308C588.388 107.169 588.249 107.03 587.971 106.752C587.971 106.613 587.693 106.335 587.554 106.335C587.415 106.196 587.276 106.057 586.998 105.779C586.998 105.64 586.72 105.362 586.581 105.362C586.442 105.223 586.303 105.084 586.025 104.806C586.025 104.667 585.747 104.389 585.608 104.389C585.469 104.25 585.33 104.111 585.052 103.833C585.052 103.694 584.774 103.416 584.635 103.416C584.496 103.277 584.357 103.138 584.079 102.86C584.079 102.721 583.801 102.443 583.662 102.443C583.523 102.304 583.384 102.165 583.106 101.887C583.106 101.748 582.828 101.47 582.689 101.47C582.55 101.331 582.411 101.192 582.133 100.914C582.133 100.775 581.855 100.497 581.716 100.497C581.577 100.358 581.438 100.219 581.16 99.9409C581.16 99.8019 580.882 99.5239 580.743 99.5239C580.604 99.3849 580.465 99.2459 580.187 98.9679C580.187 98.8289 579.909 98.5509 579.77 98.5509L579.075 97.8559C579.075 97.5779 578.519 97.2999 578.241 97.2999C578.241 97.0219 577.963 97.0219 577.963 97.0219C577.407 96.7439 577.129 96.4659 576.573 96.1879C576.295 95.9099 575.739 95.6319 575.183 95.0759C574.905 95.0759 574.349 94.7979 574.071 94.7979C573.515 94.5199 572.681 94.5199 572.264 94.2419C571.708 94.2419 571.43 94.2419 570.735 93.9639H568.928C568.65 93.9639 568.65 93.9639 568.372 93.9639C568.094 93.9639 567.816 93.9639 567.816 93.9639H564.341C564.063 94.2419 563.507 94.2419 563.229 94.2419C562.395 94.5199 561.839 94.5199 561.422 94.7979C560.866 94.7979 560.588 95.0759 560.31 95.6319C559.476 95.6319 559.198 95.9099 558.503 96.1879C558.225 96.4659 557.669 96.7439 557.391 97.0219C557.113 97.2999 556.835 97.5779 555.862 97.8559C555.584 98.4119 555.306 98.6899 555.028 98.9679C554.75 99.2459 554.75 99.5239 554.472 99.5239L447.025 233.103C441.882 239.636 442.299 248.81 448.415 254.509C448.693 254.926 449.11 255.343 449.527 255.621C449.805 256.038 450.222 256.455 450.639 256.733C450.917 257.15 451.334 257.567 451.751 257.845C452.029 258.262 452.446 258.679 452.863 258.957C453.141 259.374 453.558 259.791 453.975 260.069C454.253 260.486 454.67 260.903 455.087 261.181C455.365 261.598 455.782 262.015 456.199 262.293C456.477 262.71 456.894 263.127 457.311 263.405C457.589 263.822 458.006 264.239 458.423 264.517C459.118 265.212 459.813 266.046 460.647 266.602C463.566 269.243 467.041 270.077 470.516 270.077H550.858V281.058C550.858 285.784 552.804 290.093 556.001 293.012C556.279 293.429 556.696 293.707 557.113 294.124C557.391 294.541 557.808 294.819 558.225 295.236C558.503 295.653 558.92 295.931 559.337 296.348C559.615 296.765 560.032 297.043 560.449 297.46C560.727 297.877 561.144 298.155 561.561 298.572C561.839 298.989 562.256 299.267 562.673 299.684C562.951 300.101 563.368 300.379 563.785 300.796C564.063 301.213 564.48 301.491 564.897 301.908C565.175 302.325 565.592 302.603 566.009 303.02C568.928 306.217 573.098 308.163 577.824 308.163C586.859 308.163 593.809 301.213 593.809 292.178V270.077H596.728C605.763 270.077 612.991 263.127 612.991 254.092C613.13 247.976 611.184 243.806 607.848 240.887ZM550.997 178.754V225.597H513.189L550.997 178.754Z" fill="#534141"/>
<path d="M602.148 241.582C602.148 250.617 594.92 257.567 585.885 257.567H582.966V279.668C582.966 288.703 576.016 295.653 566.981 295.653C557.946 295.653 550.996 288.703 550.996 279.668V257.567H460.09H459.812H459.534C456.059 257.567 452.584 256.733 449.665 254.092C442.437 248.532 441.603 238.663 447.024 231.713L554.471 98.134C554.749 98.134 554.749 97.856 555.027 97.578C555.305 97.3 555.583 97.022 555.861 96.466C556.695 96.188 556.973 95.91 557.251 95.632C557.529 95.354 558.085 95.076 558.363 94.798C558.919 94.52 559.197 94.242 560.031 94.242C560.309 93.686 560.587 93.408 561.143 93.408C561.421 93.13 561.977 93.13 562.95 92.852C563.228 92.852 563.784 92.852 564.062 92.574C564.618 92.574 565.452 92.574 566.147 92.574C566.147 92.574 566.425 92.574 566.703 92.574C566.981 92.574 566.981 92.574 567.259 92.574C567.815 92.574 568.649 92.574 569.066 92.574C569.622 92.852 569.9 92.852 570.456 92.852C570.734 93.13 571.568 93.13 572.263 93.408C572.541 93.408 573.097 93.686 573.375 93.686C573.931 94.242 574.487 94.52 574.765 94.798C575.321 95.076 575.599 95.354 576.155 95.632C576.155 95.632 576.433 95.632 576.433 95.91C576.711 95.91 577.267 96.188 577.267 96.466C577.823 97.022 578.101 97.3 578.379 97.578C578.657 97.856 578.935 98.412 579.213 98.69C579.491 98.968 579.769 99.246 580.325 100.08C580.325 100.358 580.603 100.914 580.881 101.192C581.159 101.748 581.159 102.026 581.437 102.999C581.437 103.277 581.715 103.833 581.715 104.111C581.993 104.667 581.993 104.945 581.993 105.918C581.993 106.474 582.271 106.752 582.271 107.308C582.271 107.586 582.271 107.864 582.271 108.142V225.458H585.19C594.92 225.597 602.148 232.825 602.148 241.582ZM550.996 153.873L493.172 225.597H550.996V153.873Z" fill="#79FF91"/>
<path d="M256.594 631.616H253.953V636.342C253.953 637.037 253.397 637.593 252.702 637.593C252.007 637.593 251.451 637.037 251.451 636.342V623.415C251.451 622.72 252.007 622.164 252.702 622.164H256.594C259.235 622.164 261.32 624.249 261.32 626.89C261.32 629.531 259.235 631.616 256.594 631.616ZM253.953 629.114H256.594C257.845 629.114 258.818 628.141 258.818 626.89C258.818 625.639 257.845 624.666 256.594 624.666H253.953V629.114Z" fill="#C7C7C7"/>
<path d="M270.633 633.979H265.351L264.239 636.898C264.1 637.315 263.544 637.732 263.127 637.732C262.988 637.732 262.849 637.732 262.71 637.732C262.015 637.454 261.737 636.759 262.015 636.203L266.88 623.276C267.019 622.859 267.575 622.442 267.992 622.442C268.548 622.442 268.965 622.72 269.104 623.276L273.969 636.203C274.247 636.898 273.83 637.593 273.274 637.732C273.135 637.732 272.996 637.732 272.857 637.732C272.44 637.732 271.884 637.454 271.745 636.898L270.633 633.979ZM269.66 631.477L267.853 626.751L266.046 631.477H269.66Z" fill="#C7C7C7"/>
<path d="M275.637 629.67C275.637 625.222 279.251 621.747 283.699 621.747C285.506 621.747 287.313 622.442 288.703 623.415C289.259 623.832 289.398 624.666 288.981 625.222C288.564 625.778 287.73 625.917 287.174 625.361C286.201 624.666 284.95 624.11 283.699 624.11C282.17 624.11 280.78 624.666 279.807 625.778C278.834 626.751 278.139 628.141 278.139 629.67C278.139 631.06 278.695 632.45 279.807 633.423C280.78 634.396 282.17 635.091 283.699 635.091C284.811 635.091 285.784 634.813 286.757 634.257V631.199H283.56C282.865 631.199 282.309 630.643 282.309 629.948C282.309 629.253 282.865 628.697 283.56 628.697H287.869C288.564 628.697 289.12 629.253 289.12 629.948V634.813C289.12 634.952 289.12 635.091 289.12 635.23C289.12 635.23 289.12 635.23 289.12 635.369C289.12 635.508 288.981 635.786 288.703 635.925C287.313 637.037 285.645 637.593 283.699 637.593C279.251 637.593 275.637 634.118 275.637 629.67Z" fill="#C7C7C7"/>
<path d="M294.125 636.342V623.415C294.125 622.72 294.681 622.164 295.376 622.164H302.465C303.16 622.164 303.716 622.72 303.716 623.415C303.716 624.11 303.16 624.666 302.465 624.666H296.488V628.697H301.631C302.326 628.697 302.882 629.253 302.882 629.948C302.882 630.643 302.326 631.199 301.631 631.199H296.488V635.23H302.465C303.16 635.23 303.716 635.786 303.716 636.481C303.716 637.176 303.16 637.732 302.465 637.732H295.376C294.681 637.593 294.125 637.037 294.125 636.342Z" fill="#C7C7C7"/>
<path d="M316.225 636.342C316.225 637.037 315.669 637.593 314.974 637.593C314.279 637.593 313.723 637.037 313.723 636.342V623.554C313.723 623.137 313.862 622.72 314.14 622.581C314.696 622.164 315.391 622.303 315.808 622.859L322.897 632.728V623.693C322.897 622.998 323.453 622.442 324.148 622.442C324.843 622.442 325.399 622.998 325.399 623.693V636.481C325.399 637.176 324.843 637.732 324.148 637.732C323.731 637.732 323.453 637.593 323.314 637.315L323.175 637.176L316.086 627.446V636.342H316.225Z" fill="#C7C7C7"/>
<path d="M341.802 624.11C343.192 625.5 344.026 627.446 344.026 629.67C344.026 631.894 343.192 633.84 341.802 635.23C340.551 636.62 338.605 637.593 336.52 637.593C334.435 637.593 332.489 636.62 331.099 635.23C329.709 633.84 328.875 631.894 328.875 629.67C328.875 627.446 329.709 625.5 331.099 624.11C332.489 622.72 334.435 621.747 336.52 621.747C338.605 621.747 340.551 622.72 341.802 624.11ZM341.524 629.67C341.524 628.141 340.968 626.751 339.995 625.778C339.022 624.805 337.771 624.249 336.52 624.249C335.13 624.249 333.879 624.805 332.906 625.778C331.933 626.751 331.377 628.141 331.377 629.67C331.377 631.199 331.933 632.589 332.906 633.562C333.879 634.535 335.13 635.091 336.52 635.091C337.771 635.091 339.022 634.535 339.995 633.562C340.968 632.589 341.524 631.199 341.524 629.67Z" fill="#C7C7C7"/>
<path d="M356.535 624.666H353.06V636.481C353.06 637.176 352.504 637.732 351.809 637.732C351.114 637.732 350.558 637.176 350.558 636.481V624.666H347.083C346.388 624.666 345.832 624.11 345.832 623.415C345.832 622.72 346.388 622.164 347.083 622.164H356.535C357.23 622.164 357.786 622.72 357.786 623.415C357.786 624.11 357.23 624.666 356.535 624.666Z" fill="#C7C7C7"/>
<path d="M368.072 636.342V623.415C368.072 622.72 368.628 622.164 369.323 622.164H376.412C377.107 622.164 377.663 622.72 377.663 623.415C377.663 624.11 377.107 624.666 376.412 624.666H370.435V628.697H375.578C376.273 628.697 376.829 629.253 376.829 629.948C376.829 630.643 376.273 631.199 375.578 631.199H370.435V636.481C370.435 637.176 369.879 637.732 369.184 637.732C368.489 637.732 368.072 637.037 368.072 636.342Z" fill="#C7C7C7"/>
<path d="M393.093 624.11C394.483 625.5 395.317 627.446 395.317 629.67C395.317 631.894 394.483 633.84 393.093 635.23C391.842 636.62 389.896 637.593 387.811 637.593C385.726 637.593 383.78 636.62 382.39 635.23C381 633.84 380.166 631.894 380.166 629.67C380.166 627.446 381 625.5 382.39 624.11C383.78 622.72 385.726 621.747 387.811 621.747C389.757 621.747 391.703 622.72 393.093 624.11ZM392.815 629.67C392.815 628.141 392.259 626.751 391.286 625.778C390.313 624.805 389.062 624.249 387.811 624.249C386.421 624.249 385.17 624.805 384.197 625.778C383.224 626.751 382.668 628.141 382.668 629.67C382.668 631.199 383.224 632.589 384.197 633.562C385.17 634.535 386.421 635.091 387.811 635.091C389.062 635.091 390.313 634.535 391.286 633.562C392.12 632.589 392.815 631.199 392.815 629.67Z" fill="#C7C7C7"/>
<path d="M404.908 637.593C401.433 637.593 398.514 634.674 398.514 631.199V623.415C398.514 622.72 399.07 622.164 399.765 622.164C400.46 622.164 401.016 622.72 401.016 623.415V631.199C401.016 633.423 402.823 635.091 404.908 635.091C407.132 635.091 408.8 633.284 408.8 631.199V623.415C408.8 622.72 409.356 622.164 410.051 622.164C410.746 622.164 411.302 622.72 411.302 623.415V631.199C411.302 634.674 408.522 637.593 404.908 637.593Z" fill="#C7C7C7"/>
<path d="M418.529 636.342C418.529 637.037 417.973 637.593 417.278 637.593C416.583 637.593 416.027 637.037 416.027 636.342V623.554C416.027 623.137 416.166 622.72 416.444 622.581C417 622.164 417.695 622.303 418.112 622.859L425.201 632.728V623.693C425.201 622.998 425.757 622.442 426.452 622.442C427.147 622.442 427.703 622.998 427.703 623.693V636.481C427.703 637.176 427.147 637.732 426.452 637.732C426.035 637.732 425.757 637.593 425.618 637.315L425.479 637.176L418.39 627.446V636.342H418.529Z" fill="#C7C7C7"/>
<path d="M432.012 636.342V623.415C432.012 622.72 432.568 622.164 433.263 622.164H435.904C440.213 622.164 443.549 625.639 443.549 629.809C443.549 634.118 440.074 637.593 435.904 637.593H433.263C432.568 637.593 432.012 637.037 432.012 636.342ZM434.514 635.091H435.904C438.823 635.091 441.186 632.728 441.186 629.809C441.186 626.89 438.823 624.527 435.904 624.527H434.514V635.091Z" fill="#C7C7C7"/>
<path opacity="0.2" d="M356.673 542.239C364.811 542.239 371.407 535.642 371.407 527.505C371.407 519.368 364.811 512.771 356.673 512.771C348.536 512.771 341.939 519.368 341.939 527.505C341.939 535.642 348.536 542.239 356.673 542.239Z" fill="#79FF91"/>
<path opacity="0.2" d="M356.673 542.239C362.968 542.239 368.071 537.136 368.071 530.841C368.071 524.546 362.968 519.443 356.673 519.443C350.378 519.443 345.275 524.546 345.275 530.841C345.275 537.136 350.378 542.239 356.673 542.239Z" fill="#79FF91"/>
<path d="M357.786 542.239C357.786 542.239 348.751 540.988 348.195 541.266C347.639 541.683 347.222 544.185 348.195 544.88C349.307 545.575 357.508 544.324 357.508 544.324C357.508 544.324 358.481 543.49 357.786 542.239Z" fill="#79FF91"/>
<path opacity="0.49" d="M357.786 542.239C357.786 542.239 348.751 540.988 348.195 541.266C347.639 541.683 347.222 544.185 348.195 544.88C349.307 545.575 357.508 544.324 357.508 544.324C357.508 544.324 358.481 543.49 357.786 542.239Z" fill="#534141"/>
<path opacity="0.2" d="M348.195 541.267C348.473 541.267 348.89 542.101 348.751 543.074C348.612 544.047 348.334 544.603 348.195 544.603C348.056 544.603 347.5 544.047 347.639 542.796C347.778 541.962 348.056 541.406 348.195 541.267Z" fill="white"/>
<g opacity="0.2">
<path d="M349.168 541.544C349.724 541.544 350.141 541.544 350.697 541.544C350.975 541.544 351.253 541.544 351.531 541.544C351.67 541.544 351.809 541.544 351.948 541.683C352.087 541.683 352.226 541.683 352.365 541.822C352.921 541.961 353.338 541.961 353.894 541.961C354.45 541.961 354.867 542.1 355.423 542.1C354.867 542.1 354.45 542.1 353.894 542.1C353.338 542.1 352.921 542.1 352.365 541.961C352.226 541.961 352.087 541.961 351.948 541.822C351.809 541.822 351.67 541.822 351.531 541.683C351.253 541.683 350.975 541.544 350.836 541.544H349.168Z" fill="#534141"/>
<path d="M350.143 542.101C350.56 542.101 350.838 542.24 351.255 542.24C351.672 542.24 351.95 542.379 352.367 542.379C352.645 542.379 353.062 542.379 353.479 542.379C353.896 542.379 354.174 542.379 354.591 542.379C354.174 542.518 353.896 542.518 353.479 542.657C353.062 542.657 352.784 542.796 352.367 542.657C351.95 542.657 351.672 542.518 351.255 542.379C350.838 542.24 350.56 542.24 350.143 542.101Z" fill="#534141"/>
<path d="M354.59 542.934C355.007 542.656 355.563 542.378 356.258 542.378C356.536 542.378 356.814 542.378 357.092 542.517C357.231 542.517 357.37 542.656 357.509 542.795C357.509 542.795 357.648 542.934 357.648 543.073C357.648 543.073 357.648 543.073 357.648 543.212C357.648 543.212 357.648 543.351 357.509 543.351C357.231 543.629 356.953 543.768 356.675 543.768C356.536 543.768 356.397 543.768 356.258 543.768C356.119 543.768 355.98 543.629 355.841 543.629C355.702 543.49 355.563 543.49 355.563 543.212V543.073L355.702 542.934C355.841 542.934 355.841 542.934 355.98 542.934C356.119 542.934 356.258 542.934 356.397 542.934C356.536 542.934 356.675 542.934 356.814 543.073C356.536 542.934 356.258 542.934 355.98 543.073H355.841C355.841 543.073 355.841 543.073 355.841 543.212C355.841 543.351 355.98 543.351 356.119 543.49C356.258 543.49 356.397 543.629 356.536 543.629C356.675 543.629 356.814 543.629 356.953 543.629C357.231 543.629 357.509 543.49 357.648 543.212C357.648 543.212 357.648 543.073 357.509 543.073C357.37 542.934 357.37 542.934 357.231 542.795C356.953 542.656 356.675 542.656 356.397 542.656C356.119 542.656 355.841 542.656 355.563 542.795C355.146 542.656 354.868 542.795 354.59 542.934Z" fill="#534141"/>
<path d="M357.647 543.768C357.369 543.907 356.952 544.046 356.535 544.185C356.396 544.185 356.118 544.185 355.979 544.185C355.84 544.185 355.562 544.046 355.423 544.046C355.006 543.907 354.728 543.768 354.311 543.49C354.033 543.351 353.616 543.212 353.199 543.073C353.616 543.073 354.033 543.073 354.311 543.212C354.728 543.351 355.006 543.49 355.423 543.629C355.84 543.768 356.118 543.768 356.535 543.768C356.813 543.907 357.23 543.907 357.647 543.768Z" fill="#534141"/>
<path d="M348.891 544.463C349.308 544.463 349.864 544.463 350.281 544.463C350.698 544.463 351.254 544.463 351.671 544.463C352.088 544.324 352.644 544.324 353.061 544.324C353.478 544.324 354.034 544.463 354.451 544.463H353.061C352.644 544.463 352.088 544.463 351.671 544.602C351.254 544.602 350.698 544.602 350.281 544.602C349.725 544.741 349.308 544.602 348.891 544.463Z" fill="#534141"/>
<path d="M355.147 544.186C354.73 544.047 354.313 544.047 354.035 543.908C353.896 543.908 353.618 543.769 353.479 543.769C353.34 543.769 353.062 543.769 352.923 543.769C352.506 543.908 352.089 543.908 351.811 544.047C351.672 544.047 351.394 544.047 351.255 544.186C351.116 544.186 350.838 544.186 350.56 544.186C350.421 544.186 350.143 544.047 350.004 544.047C349.865 543.908 349.587 543.908 349.448 543.769L349.309 543.63C349.309 543.491 349.309 543.491 349.309 543.352C349.448 543.213 349.448 543.213 349.587 543.074C349.726 542.935 350.004 542.935 350.143 542.935C350.282 542.935 350.56 542.935 350.699 542.935C350.838 542.935 351.116 542.935 351.255 543.074L351.394 543.213C351.394 543.352 351.255 543.352 351.255 543.352C351.116 543.352 351.116 543.352 350.977 543.352C350.838 543.352 350.56 543.352 350.421 543.352C350.56 543.352 350.838 543.352 350.977 543.213C351.116 543.213 351.394 543.074 351.255 543.074C351.116 542.935 350.977 542.935 350.699 542.935C350.56 542.935 350.282 542.935 350.143 542.935C350.004 542.935 349.726 542.935 349.587 543.074C349.448 543.074 349.448 543.213 349.448 543.213V543.352C349.587 543.491 349.726 543.491 349.865 543.63C350.004 543.63 350.282 543.769 350.421 543.769C350.699 543.908 351.116 543.769 351.533 543.769C351.95 543.769 352.367 543.63 352.645 543.63C352.784 543.63 352.784 543.63 352.923 543.63C353.062 543.63 353.062 543.63 353.201 543.63C353.34 543.63 353.618 543.769 353.757 543.769C354.313 543.908 354.73 544.047 355.147 544.186Z" fill="#534141"/>
<path d="M352.505 543.074C351.949 542.935 351.532 542.796 350.976 542.657L350.281 542.518C350.003 542.518 349.725 542.379 349.447 542.379C349.725 542.24 350.003 542.24 350.281 542.379C350.559 542.379 350.837 542.518 351.115 542.518C351.532 542.657 352.088 542.796 352.505 543.074Z" fill="#534141"/>
</g>
<path d="M356.535 542.1C356.535 542.1 365.57 540.849 366.126 541.266C366.682 541.683 367.099 544.185 365.987 544.88C364.875 545.575 356.674 544.185 356.674 544.185C356.674 544.185 355.701 543.49 356.535 542.1Z" fill="#79FF91"/>
<path opacity="0.49" d="M356.535 542.1C356.535 542.1 365.57 540.849 366.126 541.266C366.682 541.683 367.099 544.185 365.987 544.88C364.875 545.575 356.674 544.185 356.674 544.185C356.674 544.185 355.701 543.49 356.535 542.1Z" fill="#534141"/>
<path opacity="0.2" d="M365.988 541.405C365.71 541.405 365.293 542.239 365.293 543.212C365.432 544.185 365.71 544.88 365.849 544.741C365.988 544.741 366.544 544.185 366.405 542.934C366.544 542.1 366.266 541.405 365.988 541.405Z" fill="white"/>
<g opacity="0.2">
<path d="M356.812 543.907L358.341 544.046C358.619 544.046 358.897 544.046 359.175 544.046C359.314 544.046 359.454 544.046 359.592 544.046C359.731 544.046 359.87 544.046 360.009 544.046C360.565 544.046 361.121 544.046 361.538 544.185C362.094 544.324 362.511 544.324 363.068 544.463C362.511 544.463 362.094 544.324 361.538 544.324C360.982 544.324 360.565 544.185 360.009 544.185C359.87 544.185 359.731 544.185 359.592 544.185C359.454 544.185 359.314 544.185 359.175 544.185C358.897 544.185 358.619 544.185 358.341 544.185C357.785 544.185 357.368 544.046 356.812 543.907Z" fill="#534141"/>
<path d="M357.785 543.907C358.202 543.768 358.48 543.629 358.897 543.629C359.314 543.49 359.592 543.49 360.009 543.49C360.426 543.49 360.704 543.49 361.121 543.629C361.538 543.768 361.816 543.768 362.233 543.907C361.816 543.907 361.538 543.768 361.121 543.768C360.704 543.768 360.426 543.629 360.009 543.629C359.592 543.629 359.314 543.629 358.897 543.768C358.48 543.907 358.063 543.907 357.785 543.907Z" fill="#534141"/>
<path d="M362.234 543.49C362.512 543.629 362.79 543.768 363.068 543.907C363.346 544.046 363.624 544.046 363.902 544.046C364.18 544.046 364.458 544.046 364.736 543.907C364.875 543.907 365.014 543.768 365.014 543.768L365.153 543.629C365.014 543.49 364.736 543.212 364.458 543.212C364.319 543.212 364.18 543.212 364.041 543.212C363.902 543.212 363.763 543.212 363.624 543.351C363.485 543.351 363.346 543.49 363.346 543.49C363.346 543.49 363.346 543.49 363.346 543.629C363.346 543.629 363.485 543.629 363.485 543.768C363.763 543.907 364.041 543.907 364.319 543.768C364.18 543.907 364.041 543.907 363.902 543.907C363.763 543.907 363.624 543.907 363.485 543.907C363.346 543.907 363.346 543.907 363.207 543.768C363.207 543.768 363.068 543.768 363.068 543.629V543.49C363.207 543.351 363.346 543.212 363.485 543.212C363.624 543.212 363.763 543.073 363.902 543.073C364.041 543.073 364.18 543.073 364.319 543.073C364.597 543.212 364.875 543.351 365.153 543.629C365.153 543.629 365.153 543.629 365.292 543.768V543.907C365.292 544.046 365.153 544.046 365.153 544.185C365.014 544.324 364.875 544.324 364.736 544.463C364.458 544.602 364.18 544.602 363.902 544.602C363.207 544.046 362.651 543.768 362.234 543.49Z" fill="#534141"/>
<path d="M365.292 542.795C364.875 542.656 364.597 542.517 364.18 542.517C363.763 542.517 363.485 542.517 363.068 542.656C362.651 542.795 362.373 542.934 361.956 543.073C361.539 543.212 361.122 543.212 360.844 543.212C361.261 543.212 361.539 543.073 361.956 542.934C362.234 542.795 362.651 542.656 363.068 542.517C363.207 542.517 363.485 542.378 363.624 542.378C363.763 542.378 364.041 542.378 364.18 542.378C364.597 542.378 365.014 542.656 365.292 542.795Z" fill="#534141"/>
<path d="M359.871 541.961C360.288 541.822 360.844 541.822 361.261 541.683C361.678 541.683 362.234 541.544 362.651 541.683C363.068 541.822 363.485 541.822 364.041 541.822H365.431C365.014 541.961 364.458 541.961 364.041 541.961C363.624 541.961 363.068 541.961 362.651 541.961C362.234 541.961 361.817 541.961 361.261 541.961C360.844 541.961 360.288 541.961 359.871 541.961Z" fill="#534141"/>
<path d="M362.789 542.1C362.372 542.239 362.094 542.378 361.677 542.378C361.538 542.378 361.259 542.517 361.12 542.517C360.981 542.517 360.982 542.517 360.843 542.517C360.704 542.517 360.704 542.517 360.565 542.517C360.148 542.378 359.731 542.378 359.453 542.239C359.036 542.1 358.618 542.1 358.34 542.1C358.201 542.1 357.924 542.1 357.785 542.239C357.646 542.239 357.368 542.378 357.368 542.517V542.656L357.507 542.795C357.646 542.934 357.924 542.934 358.063 542.934C358.202 542.934 358.48 542.934 358.619 542.934C358.758 542.934 359.036 542.934 359.175 542.795C359.453 542.656 359.036 542.656 358.897 542.517C358.758 542.517 358.479 542.378 358.34 542.378C358.479 542.378 358.758 542.378 358.897 542.378C359.036 542.378 359.036 542.378 359.175 542.517C359.175 542.517 359.314 542.517 359.314 542.656C359.314 542.795 359.175 542.795 359.175 542.795C359.036 542.934 358.758 542.934 358.619 542.934C358.48 542.934 358.202 542.934 358.063 542.934C357.924 542.934 357.646 542.934 357.507 542.795C357.368 542.795 357.229 542.656 357.229 542.517C357.229 542.517 357.229 542.378 357.229 542.239C357.229 542.1 357.229 542.1 357.368 542.1C357.507 541.961 357.785 541.822 357.924 541.822C358.063 541.822 358.341 541.683 358.48 541.683C358.758 541.683 358.897 541.683 359.175 541.683C359.314 541.683 359.591 541.822 359.73 541.822C360.147 541.961 360.565 542.1 360.843 542.1C360.982 542.1 361.26 542.239 361.399 542.1C361.538 542.1 361.816 542.1 361.955 542.1C361.955 542.239 362.372 542.239 362.789 542.1Z" fill="#534141"/>
<path d="M360.148 543.073C359.731 543.351 359.175 543.49 358.619 543.629C358.341 543.629 358.063 543.768 357.785 543.768C357.507 543.768 357.229 543.768 356.951 543.629C357.229 543.629 357.507 543.629 357.785 543.49L358.619 543.351C359.175 543.212 359.592 543.073 360.148 543.073Z" fill="#534141"/>
<path d="M362.65 544.046C363.067 544.185 363.484 544.324 363.901 544.463C364.04 544.463 364.318 544.602 364.457 544.602C364.596 544.602 364.874 544.602 365.152 544.602C365.013 544.741 364.735 544.741 364.457 544.741C364.179 544.741 364.04 544.741 363.762 544.741C363.484 544.741 363.345 544.602 363.206 544.463C362.928 544.324 362.789 544.185 362.65 544.046Z" fill="#534141"/>
</g>
<path d="M364.041 522.918C364.041 523.057 364.18 523.196 364.319 523.196C364.458 523.196 364.597 523.057 364.597 522.918C364.597 522.779 364.458 522.64 364.319 522.64C364.18 522.64 364.041 522.779 364.041 522.918Z" fill="#79FF91"/>
<path d="M360.982 510.964C360.982 511.103 361.121 511.242 361.26 511.242C361.399 511.242 361.538 511.103 361.538 510.964C361.538 510.825 361.399 510.686 361.26 510.686C361.121 510.686 360.982 510.825 360.982 510.964Z" fill="#79FF91"/>
<path d="M350.28 521.111C350.419 521.25 350.558 521.25 350.697 521.111C350.836 520.972 350.836 520.833 350.697 520.694C350.558 520.555 350.419 520.555 350.28 520.694C350.141 520.833 350.141 521.111 350.28 521.111Z" fill="#79FF91"/>
<path d="M347.777 538.208C347.777 538.347 347.916 538.486 348.055 538.486C348.194 538.486 348.333 538.347 348.333 538.208C348.333 538.069 348.194 537.93 348.055 537.93C347.916 537.93 347.777 538.069 347.777 538.208Z" fill="#79FF91"/>
<path d="M365.291 536.401C365.291 536.54 365.43 536.679 365.569 536.679C365.708 536.679 365.847 536.54 365.847 536.401C365.847 536.262 365.708 536.123 365.569 536.123C365.43 536.123 365.291 536.262 365.291 536.401Z" fill="#79FF91"/>
<path d="M363.623 524.864C363.623 525.142 363.762 525.281 364.04 525.281C364.318 525.281 364.457 525.142 364.457 524.864C364.457 524.586 364.318 524.447 364.04 524.447C363.762 524.447 363.623 524.586 363.623 524.864Z" fill="#79FF91"/>
<path d="M351.809 518.053C351.948 518.192 352.226 518.192 352.365 518.053C352.504 517.914 352.504 517.636 352.365 517.497C352.226 517.358 351.948 517.358 351.809 517.497C351.67 517.636 351.67 517.914 351.809 518.053Z" fill="#79FF91"/>
<path d="M348.473 532.092C348.473 532.37 348.612 532.509 348.89 532.509C349.168 532.509 349.307 532.37 349.307 532.092C349.307 531.814 349.168 531.675 348.89 531.675C348.751 531.675 348.473 531.814 348.473 532.092Z" fill="#79FF91"/>
<path d="M363.066 524.308C363.066 524.447 363.205 524.447 363.205 524.447C363.344 524.447 363.344 524.308 363.344 524.308C363.344 524.169 363.205 524.169 363.205 524.169C363.066 524.169 363.066 524.169 363.066 524.308Z" fill="#79FF91"/>
<path d="M364.596 529.729C364.673 529.729 364.735 529.667 364.735 529.59C364.735 529.513 364.673 529.451 364.596 529.451C364.519 529.451 364.457 529.513 364.457 529.59C364.457 529.667 364.519 529.729 364.596 529.729Z" fill="#79FF91"/>
<path d="M366.543 534.872C366.543 535.011 366.682 535.011 366.682 535.011C366.821 535.011 366.821 534.872 366.821 534.872C366.821 534.733 366.682 534.733 366.682 534.733C366.682 534.733 366.543 534.733 366.543 534.872Z" fill="#79FF91"/>
<path d="M347.916 530.841C347.916 530.98 348.055 530.98 348.055 530.98C348.194 530.98 348.194 530.841 348.194 530.841C348.194 530.702 348.055 530.702 348.055 530.702C348.055 530.702 347.916 530.702 347.916 530.841Z" fill="#79FF91"/>
<path d="M365.291 519.026C365.291 519.165 365.43 519.165 365.43 519.165C365.569 519.165 365.569 519.026 365.569 519.026C365.569 518.887 365.43 518.887 365.43 518.887C365.291 518.887 365.291 519.026 365.291 519.026Z" fill="#79FF91"/>
<path d="M357.924 517.636C358.001 517.636 358.063 517.574 358.063 517.497C358.063 517.42 358.001 517.358 357.924 517.358C357.847 517.358 357.785 517.42 357.785 517.497C357.785 517.574 357.847 517.636 357.924 517.636Z" fill="#79FF91"/>
<path d="M356.674 515.273C356.751 515.273 356.813 515.211 356.813 515.134C356.813 515.057 356.751 514.995 356.674 514.995C356.597 514.995 356.535 515.057 356.535 515.134C356.535 515.211 356.597 515.273 356.674 515.273Z" fill="#79FF91"/>
<path d="M350.975 542.517C352.087 543.212 356.396 543.768 356.396 543.768H357.508C357.508 543.768 360.288 543.073 360.705 542.934C361.122 542.795 362.095 543.212 362.512 542.934C362.929 542.656 365.014 540.71 365.153 540.154C365.292 539.598 364.458 537.652 364.458 537.235C364.458 536.818 365.014 534.455 365.014 533.621C365.014 532.787 362.79 528.895 362.512 528.339C362.234 527.644 363.207 525.42 363.207 525.42C363.207 525.42 361.261 527.505 361.4 527.922C361.4 528.339 362.373 529.451 362.373 529.868C362.373 530.146 361.122 532.648 361.261 533.065C361.261 533.343 361.817 534.594 361.817 535.011C361.817 535.011 361.539 533.899 360.983 533.482C360.427 533.065 359.732 532.787 359.454 532.648C359.176 532.37 358.481 530.424 358.481 530.146C358.481 529.868 359.037 529.312 359.037 528.478C358.898 527.644 357.23 524.864 357.23 524.864C357.23 524.864 357.508 526.393 357.23 526.81C356.952 527.227 355.84 527.783 355.701 528.061C355.562 528.339 356.674 529.59 356.535 529.868C356.396 530.146 353.894 530.702 353.616 530.98C353.338 531.258 352.643 533.899 352.921 534.455C353.06 535.011 353.755 536.818 353.338 537.235C353.06 537.652 352.226 537.791 352.226 537.652C352.226 537.513 352.643 536.262 352.504 535.567C352.365 534.872 351.531 533.204 351.531 532.787C351.531 532.37 351.948 530.424 352.226 529.868C352.504 529.451 350.697 532.37 350.558 533.065C350.419 533.899 351.114 536.401 350.975 536.401C350.836 536.401 350.558 536.123 350.558 535.984C350.419 535.845 350.558 534.594 350.558 534.594C350.558 534.594 349.585 535.706 349.446 536.262C349.307 536.818 349.863 538.069 349.863 538.486C349.724 538.903 349.307 539.876 349.307 540.432C349.029 540.988 350.558 542.239 350.975 542.517ZM362.929 538.764C362.929 539.32 362.373 540.432 362.234 540.432C362.234 540.432 362.373 539.598 362.373 539.32C362.373 539.042 362.234 538.764 361.956 538.069C361.817 537.374 362.373 536.54 362.373 536.54C362.373 536.54 362.929 538.069 362.929 538.764ZM360.566 542.656C360.566 542.656 361.261 542.1 361.539 541.822C361.817 541.544 362.929 541.127 363.068 540.71C363.207 540.432 363.485 539.042 363.485 539.042C363.485 539.042 363.763 540.432 363.624 540.988C363.485 541.405 362.373 542.517 361.956 542.656C361.678 542.795 360.566 542.656 360.566 542.656ZM353.199 538.208C353.199 538.347 352.643 539.181 352.643 539.737C352.643 540.293 352.921 540.849 353.06 541.127C353.338 541.405 353.477 542.239 353.477 542.239C353.477 542.239 352.365 541.683 352.087 540.849C351.948 540.154 353.199 538.347 353.199 538.208Z" fill="#79FF91"/>
<path d="M361.122 525.976C361.122 525.976 362.373 525.142 362.373 524.447C362.373 523.752 361.678 522.501 361.678 521.945C361.817 521.389 361.956 520.972 361.956 520.972C361.956 520.972 360.705 521.806 360.705 522.64C360.705 523.335 361.4 524.447 361.4 524.864C361.4 525.142 361.122 525.976 361.122 525.976Z" fill="#79FF91"/>
<path d="M353.893 530.007C353.893 530.007 354.171 529.173 354.171 528.756C354.171 528.478 353.754 527.922 353.754 527.922C353.754 527.922 353.476 528.2 353.615 528.756C353.754 529.451 353.893 530.007 353.893 530.007Z" fill="#79FF91"/>
<path d="M350.836 529.868C350.975 529.729 351.392 528.895 351.531 528.061C351.67 527.227 351.114 526.115 350.975 525.976C350.836 525.698 350.141 525.281 350.141 525.281C350.141 525.281 350.558 525.976 350.558 526.254C350.558 526.532 350.28 527.505 350.28 527.922C350.419 528.2 350.836 529.868 350.836 529.868Z" fill="#79FF91"/>
<path d="M358.758 524.864C358.758 524.864 359.731 523.613 359.453 522.779C359.314 521.945 358.619 520.972 358.341 520.694C358.063 520.416 357.368 519.721 357.09 519.304C356.812 518.887 356.812 517.219 357.09 516.941C357.368 516.524 357.924 516.246 357.924 516.246C357.924 516.246 356.673 516.246 355.839 517.358C355.005 518.47 354.032 522.779 354.449 523.752C354.866 524.725 356.256 525.698 356.256 525.698C356.256 525.698 355.839 524.03 355.978 523.613C356.117 523.196 357.368 523.613 357.646 523.891C358.202 524.03 358.758 524.864 358.758 524.864Z" fill="#79FF91"/>
<path d="M360.844 530.841C360.844 530.841 361.4 530.285 361.261 529.729C361.122 529.173 360.427 528.478 360.427 528.2C360.427 527.922 360.566 526.949 360.566 526.949C360.566 526.949 359.871 528.339 360.01 528.756C360.149 529.173 360.288 529.868 360.288 529.868C360.288 529.868 360.01 529.59 359.871 529.451C359.871 529.312 359.732 529.034 359.732 529.034C359.732 529.034 359.176 529.729 359.315 530.146C359.454 530.563 360.427 531.536 360.427 531.536C360.427 531.536 360.427 531.258 360.427 531.119C360.566 530.98 360.705 531.119 360.844 530.841Z" fill="#79FF91"/>
<g opacity="0.4">
<path d="M356.95 543.907C356.95 543.907 360.286 542.656 360.981 540.988C361.398 539.876 360.147 537.791 360.147 537.374C360.008 537.096 360.147 535.706 360.008 535.15C359.869 534.594 357.506 533.204 357.228 532.926C357.089 532.509 357.645 531.119 357.645 531.119C357.645 531.119 355.838 532.509 355.56 533.343C355.282 534.177 356.394 535.706 356.394 535.984C356.394 536.262 355.838 537.096 355.838 537.096C355.838 537.096 355.421 536.54 355.421 535.984C355.421 535.428 355.699 535.15 355.56 534.733C355.56 534.316 354.726 533.621 354.726 533.621C354.726 533.621 355.143 534.316 354.865 534.733C354.726 535.15 353.753 536.123 353.892 536.818C354.031 537.513 355.143 539.181 355.004 539.598C354.865 540.015 354.726 540.432 354.726 540.432C354.726 540.432 354.448 539.737 354.309 539.32C354.17 538.903 354.17 538.347 354.17 538.347C354.17 538.347 353.614 541.266 354.17 542.1C354.726 542.934 356.95 543.907 356.95 543.907Z" fill="white"/>
<path d="M357.925 523.474C357.925 523.474 358.341 522.64 358.341 522.223C358.341 521.806 357.508 521.25 357.23 520.833C356.813 520.555 356.118 519.443 356.118 518.887C356.118 518.331 356.256 517.914 356.256 517.914C356.256 517.914 355.145 521.111 355.284 522.084C355.284 523.057 355.979 523.752 355.979 523.752C355.979 523.752 356.257 522.779 356.674 522.779C357.091 522.779 357.925 523.474 357.925 523.474Z" fill="white"/>
<path d="M361.398 525.559C361.398 525.559 362.093 524.864 362.093 524.447C362.093 524.03 361.398 522.779 361.398 522.779C361.398 522.779 361.676 524.169 361.676 524.447C361.815 524.864 361.398 525.559 361.398 525.559Z" fill="white"/>
<path d="M353.198 542.795C353.198 542.795 351.808 541.961 351.53 541.683C351.252 541.405 350.835 540.154 350.835 539.876C350.835 539.598 351.391 538.486 351.391 538.208C351.391 537.93 350.418 536.818 350.418 536.818C350.418 536.818 350.696 537.791 350.696 538.069C350.696 538.347 349.445 539.737 349.445 540.293C349.584 540.849 350.696 541.822 350.974 541.961C351.391 542.378 353.198 542.795 353.198 542.795Z" fill="white"/>
<path d="M363.346 537.096C363.346 537.096 364.319 534.594 364.18 534.038C364.041 533.343 362.929 530.98 362.929 530.98C362.929 530.98 363.068 533.065 363.068 533.343C363.207 533.621 362.929 534.733 362.929 534.733C362.929 534.733 362.651 534.038 362.512 533.76C362.512 533.482 362.651 532.509 362.651 532.509C362.651 532.509 361.956 534.316 362.095 535.011C362.373 535.567 363.346 537.096 363.346 537.096Z" fill="white"/>
</g>
</svg>
